<svg width="36" height="26" viewBox="0 0 36 26" fill="none" xmlns="http://www.w3.org/2000/svg">
<path d="M32.832 0.333313H2.83203C2.16899 0.333313 1.53311 0.596705 1.06426 1.06555C0.595423 1.53439 0.332031 2.17027 0.332031 2.83331V22.8333C0.332031 23.4964 0.595423 24.1322 1.06426 24.6011C1.53311 25.0699 2.16899 25.3333 2.83203 25.3333H32.832C33.4951 25.3333 34.131 25.0699 34.5998 24.6011C35.0686 24.1322 35.332 23.4964 35.332 22.8333V2.83331C35.332 2.17027 35.0686 1.53439 34.5998 1.06555C34.131 0.596705 33.4951 0.333313 32.832 0.333313ZM30.082 2.83331L17.832 11.3083L5.58203 2.83331H30.082ZM2.83203 22.8333V3.97081L17.1195 13.8583C17.3288 14.0035 17.5774 14.0813 17.832 14.0813C18.0867 14.0813 18.3353 14.0035 18.5445 13.8583L32.832 3.97081V22.8333H2.83203Z" fill="#001233"/>
</svg>
