<svg width="42" height="42" viewBox="0 0 42 42" fill="none" xmlns="http://www.w3.org/2000/svg">
<path d="M13.8634 40.2186L21.0003 36.1762L28.1379 40.2186H13.8634ZM29.9907 31.1746L30.5395 39.5334L22.7846 35.217L29.9907 31.1746ZM14.6178 30.6264H27.4514L21.0689 34.1892L14.6178 30.6264ZM12.01 31.1746L19.2154 35.217L11.4611 39.5334L12.01 31.1746ZM13.1077 15.0049L19.6957 20.9657L12.2841 27.6803L13.1077 15.0049ZM19.5587 6.78304L13.3831 11.3736L13.9313 2.60359L19.5587 6.78304ZM21.0003 5.68679L15.7847 1.84992H26.216L21.0003 5.68679ZM22.4413 6.78304L28.0687 2.60359L28.6183 11.3736L22.4413 6.78304ZM22.3043 20.9657L28.8923 15.0049L29.7159 27.6803L22.3043 20.9657ZM28.4806 28.9135H13.5201L21.0003 22.199L28.4806 28.9135ZM14.9611 12.3328L21.0003 7.87928L27.0389 12.3328H14.9611ZM27.3822 14.0457L21.0003 19.801L14.6178 14.0457H27.3822ZM41.1086 40.2186H32.3238C32.049 36.4502 29.9215 3.63132 29.7845 1.78141H35.8237V5.2757C35.8237 5.7553 36.2355 6.1664 36.7158 6.1664C37.1961 6.1664 37.6086 5.7553 37.6086 5.2757V0.890705C37.6086 0.411095 37.1961 0 36.7158 0H5.28419C4.80387 0 4.39274 0.411095 4.39274 0.890705V5.2757C4.39274 5.7553 4.80387 6.1664 5.28419 6.1664C5.7645 6.1664 6.1763 5.7553 6.1763 5.2757V1.78141H12.2162L9.67692 40.2186H0.89211C0.411791 40.2186 0 40.6297 0 41.1093C0 41.5889 0.411791 42 0.89211 42C1.57867 42 40.422 42 41.1086 42C41.5889 42 42 41.5889 42 41.1093C42 40.6297 41.5889 40.2186 41.1086 40.2186Z" fill="#001233"/>
<path d="M3.49953 8.83984H6.99947C7.47978 8.83984 7.89227 8.42875 7.89227 7.94914C7.89227 7.46953 7.47978 7.05844 6.99947 7.05844H3.49953C3.01921 7.05844 2.60742 7.46953 2.60742 7.94914C2.60742 8.42875 3.01921 8.83984 3.49953 8.83984Z" fill="#001233"/>
<path d="M3.49953 11.4436H6.99947C7.47978 11.4436 7.89227 11.0325 7.89227 10.5529C7.89227 10.0733 7.47978 9.6622 6.99947 9.6622H3.49953C3.01921 9.6622 2.60742 10.0733 2.60742 10.5529C2.60742 11.0325 3.01921 11.4436 3.49953 11.4436Z" fill="#001233"/>
<path d="M3.49953 14.0469H6.99947C7.47978 14.0469 7.89227 13.6358 7.89227 13.1562C7.89227 12.6766 7.47978 12.2655 6.99947 12.2655H3.49953C3.01921 12.2655 2.60742 12.6766 2.60742 13.1562C2.60742 13.6358 3.01921 14.0469 3.49953 14.0469Z" fill="#001233"/>
<path d="M34.1074 7.94914C34.1074 8.42875 34.5192 8.83984 34.9995 8.83984H38.4995C38.9798 8.83984 39.3916 8.42875 39.3916 7.94914C39.3916 7.46953 38.9798 7.05844 38.4995 7.05844H34.9995C34.5192 7.05844 34.1074 7.46953 34.1074 7.94914Z" fill="#001233"/>
<path d="M38.4995 9.6622H34.9995C34.5192 9.6622 34.1074 10.0733 34.1074 10.5529C34.1074 11.0325 34.5192 11.4436 34.9995 11.4436H38.4995C38.9798 11.4436 39.3916 11.0325 39.3916 10.5529C39.3916 10.0733 38.9798 9.6622 38.4995 9.6622Z" fill="#001233"/>
<path d="M39.3916 13.1562C39.3916 12.6766 38.9798 12.2655 38.4995 12.2655H34.9995C34.5192 12.2655 34.1074 12.6766 34.1074 13.1562C34.1074 13.6358 34.5192 14.0469 34.9995 14.0469H38.4995C38.9798 14.0469 39.3916 13.6358 39.3916 13.1562Z" fill="#001233"/>
<path d="M36.7158 23.6406C36.7158 24.1202 36.3046 24.5313 35.8236 24.5313C35.3433 24.5313 34.9315 24.1202 34.9315 23.6406C34.9315 23.1609 35.3433 22.7499 35.8236 22.7499C36.3725 22.7499 36.7158 23.1609 36.7158 23.6406ZM33.2158 23.6406C33.2158 25.0794 34.3827 26.2441 35.8236 26.2441C37.2653 26.2441 38.4315 25.0794 38.4315 23.6406C38.4315 22.2017 37.2653 21.037 35.8236 21.037C34.4512 21.037 33.2158 22.2017 33.2158 23.6406Z" fill="#001233"/>
<path d="M4.3927 28.9159C4.87302 28.9159 5.28415 29.327 5.28415 29.8066C5.28415 30.2862 4.87302 30.6973 4.3927 30.6973C3.91238 30.6973 3.49989 30.2862 3.49989 29.8066C3.49989 29.2584 3.91238 28.9159 4.3927 28.9159ZM4.3927 32.4102C5.83365 32.4102 6.99983 31.2454 6.99983 29.8066C6.99983 28.3677 5.83365 27.203 4.3927 27.203C2.95107 27.203 1.78418 28.3677 1.78418 29.8066C1.78418 31.2454 2.95107 32.4102 4.3927 32.4102Z" fill="#001233"/>
</svg>
