<svg width="42" height="44" viewBox="0 0 42 44" fill="none" xmlns="http://www.w3.org/2000/svg">
<path d="M10.0311 42.0904L11.7452 39.3728C15.545 39.3728 25.5314 39.3728 29.332 39.3728L30.9706 42.0904H10.0311ZM19.3464 19.6861C20.0914 19.9061 20.9857 19.9061 21.73 19.6861L25.9039 37.5361H23.3702V32.9082C23.3702 32.3946 22.923 31.953 22.4019 31.953C21.8801 31.953 21.4322 32.3946 21.4322 32.9082V37.5361H19.5696V32.9082C19.5696 32.3946 19.1224 31.953 18.6006 31.953C18.0795 31.953 17.7062 32.3946 17.7062 32.9082V37.5361H15.1725L19.3464 19.6861ZM14.2042 20.2004C11.5966 21.6692 9.58395 22.4044 8.54104 22.6237C9.28608 21.8164 10.9247 20.4941 13.5338 19.0252C14.6507 18.3637 15.769 17.85 16.738 17.4085C16.8873 17.7029 17.0359 17.9965 17.1852 18.2173C16.3655 18.8781 15.3225 19.6132 14.2042 20.2004ZM19.8674 6.39031C19.8674 6.31746 19.8674 6.31746 19.8674 6.31746C20.0167 4.40787 20.2407 3.08478 20.4639 2.27752C20.7618 3.30554 21.1343 5.36229 21.1343 8.2999C21.1343 9.54868 21.0596 10.7982 20.9111 11.8998C20.6132 11.8262 20.3146 11.8262 19.9428 11.8998C19.7928 10.1366 19.7928 8.15346 19.8674 6.39031ZM32.4614 22.6237C31.4185 22.4044 29.4059 21.6692 26.7982 20.2004C25.6799 19.5389 24.637 18.8781 23.7427 18.2173C23.9666 17.9965 24.1152 17.7029 24.1899 17.4085C25.2335 17.85 26.3503 18.3637 27.3947 19.0252C30.077 20.4941 31.7164 21.89 32.4614 22.6237ZM18.3027 15.8661C18.3027 14.691 19.271 13.7358 20.4639 13.7358C21.6561 13.7358 22.6244 14.691 22.6244 15.8661C22.6244 17.0413 21.6561 17.9965 20.4639 17.9965C19.3464 17.9965 18.3027 17.0413 18.3027 15.8661ZM35.4424 42.0904H33.2072L30.6728 37.9769C30.5242 37.6825 30.2263 37.5361 29.8538 37.5361H27.7665L23.8174 20.5676C25.8293 21.89 28.6609 23.4324 30.9706 24.1675C32.1636 24.5347 33.9523 24.9748 34.548 23.8732C35.2191 22.7716 33.9523 21.5228 32.9833 20.6412C30.8221 18.7316 27.3201 16.6741 24.4877 15.5725C24.4131 14.3238 23.7427 13.2222 22.6998 12.5606C22.8484 11.7534 22.923 10.8718 22.923 9.99021H25.0842C25.606 9.99021 26.0525 9.54868 26.0525 9.03504C26.0525 8.52067 25.606 8.15348 25.0842 8.15348H22.9976C22.9976 7.85986 22.9976 7.56624 22.9976 7.19904H36.3367C36.8578 7.19904 37.2311 7.6391 37.2311 8.15348C37.2311 8.66785 36.7839 9.03504 36.3367 9.03504C35.8149 9.03504 35.3684 9.47583 35.3684 9.99021C35.3684 10.5046 35.8149 10.9446 36.3367 10.9446C37.9014 10.9446 39.0944 9.69585 39.0944 8.22704C39.0944 6.68465 37.8275 5.50875 36.3367 5.50875H22.923C22.8484 4.55432 22.6998 3.67274 22.5505 2.93834C22.2526 1.68957 21.8054 0 20.4639 0C19.1971 0 18.676 1.68957 18.3766 2.93834C18.228 3.67274 18.0795 4.55432 18.0041 5.50875H12.043C11.5212 5.50875 11.1487 5.95026 11.1487 6.39031C11.1487 6.90469 11.5966 7.34548 12.043 7.34548H17.9302C17.9302 7.6391 17.9302 7.9327 17.9302 8.2999H7.49738C6.97629 8.2999 6.52839 7.85986 6.52839 7.34548C6.52839 6.83184 6.97629 6.39031 7.49738 6.39031C8.0192 6.39031 8.46564 5.95027 8.46564 5.50875C8.46564 4.99511 8.0192 4.55431 7.49738 4.55431C5.9319 4.55431 4.73968 5.80309 4.73968 7.2719C4.73968 8.74143 6.00655 9.99021 7.49738 9.99021H18.0041C18.0795 10.9446 18.1541 11.7534 18.2281 12.5606C17.2598 13.2222 16.5147 14.3238 16.4394 15.5725C13.6824 16.6741 10.1058 18.7316 7.94457 20.6412C6.97631 21.5228 5.78333 22.7716 6.37981 23.8732C7.0502 24.9748 8.76425 24.5347 9.95646 24.1675C12.267 23.4324 15.0986 21.89 17.1105 20.5676L13.1613 37.5361H11.074C10.7762 37.5361 10.4783 37.6825 10.2543 37.9769L7.8699 42.0904H5.63404C5.11295 42.0904 4.66577 42.5312 4.66577 43.0456C4.66577 43.5592 5.11295 44 5.63404 44C6.75234 44 33.9523 44 35.4424 44C35.9642 44 36.4113 43.5592 36.4113 43.0456C36.3367 42.5312 35.9642 42.0904 35.4424 42.0904Z" fill="#06C15A"/>
<path d="M27.0222 4.48047H32.6108C33.1319 4.48047 33.5798 4.03969 33.5798 3.52605C33.5798 3.01168 33.1319 2.57088 32.6108 2.57088H27.0222C26.5004 2.57088 26.0525 3.01168 26.0525 3.52605C26.1279 4.03969 26.5004 4.48047 27.0222 4.48047Z" fill="#06C15A"/>
<path d="M27.0222 9.98983C26.5004 9.98983 26.0525 10.4299 26.0525 10.9442C26.0525 11.4586 26.5004 11.8994 27.0222 11.8994H29.8538C30.3749 11.8994 30.7482 11.4586 30.7482 10.9442C30.7482 10.4299 30.3003 9.98983 29.8538 9.98983H27.0222Z" fill="#06C15A"/>
<path d="M13.9801 12.708C14.502 12.708 14.9492 12.2672 14.9492 11.7536C14.9492 11.2392 14.502 10.7984 13.9801 10.7984H7.42261C6.90079 10.7984 6.45435 11.2392 6.45435 11.7536C6.45435 12.2672 6.90079 12.708 7.42261 12.708H13.9801Z" fill="#06C15A"/>
<path d="M2.80201 3.52637H10.2539C10.7757 3.52637 11.2229 3.08484 11.2229 2.5712C11.2229 2.05683 10.7757 1.61603 10.2539 1.61603H2.80201C2.28018 1.61603 1.83374 2.05683 1.83374 2.5712C1.90765 3.08484 2.28018 3.52637 2.80201 3.52637Z" fill="#06C15A"/>
<path d="M3.77106 35.7004C3.24923 35.7004 2.80204 35.2596 2.80204 34.7452C2.80204 34.2316 3.24923 33.7908 3.77106 33.7908C4.29288 33.7908 4.73929 34.2316 4.73929 34.7452C4.66537 35.2596 4.29288 35.7004 3.77106 35.7004ZM6.52799 34.7452C6.52799 33.2028 5.26114 31.9541 3.77106 31.9541C2.28024 31.9541 0.939453 33.2028 0.939453 34.7452C0.939453 36.2876 2.20558 37.5371 3.77106 37.5371C5.33579 37.5371 6.52799 36.2876 6.52799 34.7452Z" fill="#06C15A"/>
<path d="M3.32396 16.3807C3.54792 16.3807 3.77116 16.6015 3.77116 16.8215C3.77116 17.0415 3.54792 17.2623 3.32396 17.2623C3.10001 17.2623 2.8768 17.0415 2.8768 16.8215C2.80215 16.6015 3.02609 16.3807 3.32396 16.3807ZM3.32396 19.1719C4.59083 19.1719 5.63374 18.1439 5.63374 16.8951C5.63374 15.6463 4.59083 14.6176 3.32396 14.6176C2.0571 14.6176 1.01346 15.6463 1.01346 16.8951C0.939552 18.0703 1.98244 19.1719 3.32396 19.1719Z" fill="#06C15A"/>
<path d="M38.7219 30.1906C37.9761 30.1906 37.3057 29.6034 37.3057 28.7954C37.3057 28.0603 37.9015 27.3994 38.7219 27.3994C39.5409 27.3994 40.1373 27.9874 40.1373 28.7954C40.0627 29.5298 39.4669 30.1906 38.7219 30.1906ZM38.7219 25.5634C36.9332 25.5634 35.4424 27.0322 35.4424 28.7954C35.4424 30.5585 36.9332 32.0273 38.7219 32.0273C40.5099 32.0273 41.9999 30.5585 41.9999 28.7954C41.926 27.0322 40.5099 25.5634 38.7219 25.5634Z" fill="#06C15A"/>
<path d="M29.5553 26.5172C29.0335 26.6644 28.8103 27.178 28.9596 27.6931C29.1081 28.2075 29.6299 28.4275 30.1518 28.2804C30.6728 28.1339 30.8968 27.6195 30.7483 27.1052C30.5243 26.5915 30.0025 26.3707 29.5553 26.5172Z" fill="#06C15A"/>
<path d="M37.0074 15.4989C36.4856 15.6461 36.2631 16.1598 36.4117 16.6741C36.561 17.1892 37.0821 17.4085 37.6039 17.2621C38.1257 17.1149 38.3489 16.6013 38.2004 16.0869C37.9764 15.5725 37.4546 15.3525 37.0074 15.4989Z" fill="#06C15A"/>
<path d="M11.5208 29.1611C12.0426 29.0139 12.2666 28.5003 12.1173 27.9859C11.968 27.4715 11.4461 27.2515 10.9243 27.398C10.4032 27.5451 10.18 28.0588 10.3286 28.5731C10.4779 29.0882 10.9997 29.3819 11.5208 29.1611Z" fill="#06C15A"/>
<path d="M35.1446 35.6989C34.6228 35.8461 34.3988 36.3605 34.5481 36.8741C34.6967 37.3885 35.2192 37.6092 35.7411 37.4621C36.2629 37.3156 36.4854 36.8005 36.3368 36.2862C36.1128 35.8461 35.591 35.5525 35.1446 35.6989Z" fill="#06C15A"/>
<path d="M3.77176 12.0473C3.92106 12.561 4.44214 12.7817 4.96396 12.6353C5.48579 12.4874 5.70899 11.973 5.56043 11.4594C5.41039 10.945 4.88929 10.7242 4.36747 10.8721C3.92103 11.0922 3.62246 11.6058 3.77176 12.0473Z" fill="#06C15A"/>
<path d="M13.086 1.76321C13.5804 1.76321 13.9803 2.1581 13.9803 2.64479C13.9803 3.13147 13.5804 3.52637 13.086 3.52637C12.5922 3.52637 12.1917 3.13147 12.1917 2.64479C12.1917 2.1581 12.5922 1.76321 13.086 1.76321Z" fill="#06C15A"/>
<path d="M1.2377 29.1611C1.75952 29.0139 1.98273 28.5003 1.83416 27.9859C1.68412 27.4715 1.16306 27.2515 0.641235 27.398C0.11941 27.5451 -0.103811 28.0588 0.0454929 28.5731C0.26871 29.0882 0.790526 29.3819 1.2377 29.1611Z" fill="#06C15A"/>
<path d="M32.3131 9.9912C31.7912 10.1376 31.5672 10.652 31.7166 11.1664C31.8651 11.6808 32.387 11.9008 32.9095 11.7543C33.4306 11.6064 33.6538 11.0928 33.5053 10.5784C33.356 10.064 32.8341 9.84403 32.3131 9.9912Z" fill="#06C15A"/>
</svg>
