<svg width="42" height="40" viewBox="0 0 42 40" fill="none" xmlns="http://www.w3.org/2000/svg">
<path d="M37.5978 28.1433H32.3562V13.6283H37.5978V28.1433ZM40.1833 33.2535H1.74675V29.8465C3.42417 29.8465 37.4585 29.8465 40.1833 29.8465V33.2535ZM4.40221 13.6283H9.64381V28.075H4.40221V13.6283ZM21.8037 20.852L23.9005 21.1244L20.127 24.8038L20.7557 23.5778C21.035 23.0324 20.6157 22.3504 19.987 22.3504H17.9602L20.0563 17.8532H22.0137L21.175 19.6936C20.895 20.1708 21.2443 20.7838 21.8037 20.852ZM19.2176 28.1433L26.4159 21.1244C26.6259 20.9196 26.766 20.579 26.626 20.2383C26.486 19.8984 26.2766 19.6936 25.9273 19.6936L23.2011 19.353L24.1098 17.3767C24.3892 16.8313 23.9705 16.15 23.3418 16.15H19.4976C19.1482 16.15 18.8682 16.3541 18.7289 16.6272L15.8634 22.8276C15.5841 23.373 16.0035 24.0543 16.6328 24.0543H18.5889L16.5621 28.1433H11.3905V13.6283H30.6095V28.075H19.2176V28.1433ZM1.74675 8.5181C7.4077 8.5181 34.5223 8.5181 40.1833 8.5181V11.9251C38.5058 11.9251 4.47221 11.9251 1.74675 11.9251V8.5181ZM6.98835 4.29325H9.57378V6.81424H6.98835V4.29325ZM32.3562 4.29325H35.0117V6.81424H32.3562V4.29325ZM41.022 13.6283C41.5113 13.6283 41.9307 13.2201 41.9307 12.743V7.63203C41.9307 7.15487 41.5113 6.81424 41.022 6.81424H36.6891V3.40718C36.6891 2.93001 36.2698 2.5218 35.7811 2.5218H31.4482C30.9588 2.5218 30.5395 2.93001 30.5395 3.40718V6.81424H11.3905V3.40718C11.3905 2.93001 10.9719 2.5218 10.4825 2.5218H6.14963C5.66096 2.5218 5.24093 2.93001 5.24093 3.40718V6.81424H0.908032C0.418669 6.81424 0 7.2238 0 7.63203V12.743C0 13.2201 0.418669 13.6283 0.908032 13.6283H2.65546V28.075H0.908032C0.418669 28.075 0 28.4839 0 28.9611V34.0713C0 34.5485 0.418669 34.9574 0.908032 34.9574H41.092C41.5813 34.9574 42 34.5485 42 34.0713V28.9611C42 28.4839 41.5813 28.075 41.092 28.075H39.3445V13.6283H41.022Z" fill="#06C15A"/>
<path d="M9.15505 38.3645C8.94503 38.3645 8.735 38.1597 8.735 37.9556C8.735 37.7515 8.94503 37.5467 9.15505 37.5467C9.36438 37.5467 9.57371 37.7515 9.57371 37.9556C9.64372 38.1597 9.43439 38.3645 9.15505 38.3645ZM9.15505 35.7753C7.96699 35.7753 6.98828 36.7289 6.98828 37.8874C6.98828 39.0458 7.96699 40.0001 9.15505 40.0001C10.3431 40.0001 11.3211 39.0458 11.3211 37.8874C11.3905 36.7289 10.3431 35.7753 9.15505 35.7753Z" fill="#06C15A"/>
<path d="M25.2978 1.70402C25.7872 1.70402 26.2065 2.11293 26.2065 2.58941C26.2065 3.06658 25.7872 3.47547 25.2978 3.47547C24.8092 3.47547 24.3891 3.06658 24.3891 2.58941C24.4598 2.11293 24.8785 1.70402 25.2978 1.70402ZM25.2978 5.11108C26.7659 5.11108 27.954 3.95264 27.954 2.58941C27.954 1.1586 26.7659 0.00015831 25.2978 0.00015831C23.8304 0.00015831 22.7124 1.1586 22.7124 2.58941C22.7124 3.95264 23.9004 5.11108 25.2978 5.11108Z" fill="#06C15A"/>
<path d="M38.4365 2.58948C38.9259 2.58948 39.3446 2.18125 39.3446 1.70408C39.3446 1.22692 38.9259 0.818029 38.4365 0.818029C37.9472 0.818029 37.5278 1.22692 37.5278 1.70408C37.5978 2.18125 37.9472 2.58948 38.4365 2.58948Z" fill="#06C15A"/>
<path d="M2.58577 5.11108C3.07513 5.11108 3.49448 4.70218 3.49448 4.29328C3.49448 3.81679 3.07513 3.40721 2.58577 3.40721C2.0964 3.40721 1.67773 3.81679 1.67773 4.29328C1.74705 4.77044 2.16641 5.11108 2.58577 5.11108Z" fill="#06C15A"/>
<path d="M13.9771 4.29333C14.4664 4.29333 14.8851 3.88443 14.8851 3.40726C14.8851 2.9301 14.4664 2.52189 13.9771 2.52189C13.4884 2.52189 13.0684 2.9301 13.0684 3.40726C13.0684 3.88443 13.4884 4.29333 13.9771 4.29333Z" fill="#06C15A"/>
<path d="M25.2979 35.7754C24.8092 35.7754 24.3892 36.1836 24.3892 36.6608C24.3892 37.138 24.8092 37.5469 25.2979 37.5469C25.7872 37.5469 26.2066 37.138 26.2066 36.6608C26.2066 36.1836 25.7872 35.7754 25.2979 35.7754Z" fill="#06C15A"/>
<path d="M27.1152 15.3325H28.8619V17.0356H27.1152V15.3325Z" fill="#06C15A"/>
<path d="M34.1035 15.3325H35.8503V17.0356H34.1035V15.3325Z" fill="#06C15A"/>
<path d="M34.1035 24.7364H35.8503V26.4396H34.1035V24.7364Z" fill="#06C15A"/>
<path d="M6.1499 15.3325H7.89665V17.0356H6.1499V15.3325Z" fill="#06C15A"/>
<path d="M6.1499 24.7364H7.89665V26.4396H6.1499V24.7364Z" fill="#06C15A"/>
<path d="M13.0684 15.3325H14.8158V17.0356H13.0684V15.3325Z" fill="#06C15A"/>
</svg>
