<svg width="39" height="42" viewBox="0 0 39 42" fill="none" xmlns="http://www.w3.org/2000/svg">
<path d="M20.4977 40.2604C18.2978 40.2604 16.2449 39.7734 14.412 39.0082L16.0982 34.5563L18.0047 32.8863C18.5178 32.4691 18.3712 31.6341 17.7116 31.4257L14.3384 30.243L12.4322 28.2951C12.3587 28.1557 12.2121 28.0863 11.9922 28.0164L9.1327 27.1815V25.304L12.8723 21.6167L14.4849 21.4773C14.9986 21.4076 15.2917 21.0598 15.2917 20.5727V19.1816L15.9513 18.5558C16.0982 18.3467 16.2449 18.1384 16.1718 17.9293L16.0982 16.9557L16.3914 16.886L16.8314 17.7209C17.0513 18.2081 17.7846 18.3467 18.2245 18.068L22.1841 15.2162C22.4772 15.0078 22.6241 14.5897 22.4772 14.1729L21.8903 12.5031C23.2837 12.6425 24.6771 12.9206 25.9236 13.4077L24.8233 14.1729C24.4567 14.382 24.1637 14.7988 24.0902 15.2162L23.9433 16.1905L22.4038 16.2595C22.1107 16.2595 21.8176 16.4686 21.6707 16.6776L20.2039 19.1816C19.9109 19.6688 20.2039 20.2946 20.7907 20.434L21.3776 20.5727L19.3242 23.4252C19.1044 23.7032 19.1044 24.1207 19.3242 24.4691L22.6976 28.6431C22.7703 28.7824 22.9172 28.8514 23.0641 28.9209L26.0698 30.1727L25.7032 33.3736C25.6298 33.8601 26.0698 34.3472 26.6566 34.3472H29.3692C29.6623 34.3472 30.0296 34.2078 30.1757 33.9297L32.8156 29.4779L34.9421 28.2951C33.9886 35.1132 27.9031 40.2604 20.4977 40.2604ZM5.83315 26.3473C5.83315 18.9029 12.0658 12.7812 19.9109 12.4334L20.5711 14.0335L18.078 15.8427L17.7846 15.2859C17.5646 14.8684 17.1246 14.7298 16.6848 14.8684L14.925 15.4246C14.5585 15.5647 14.2651 15.9117 14.2651 16.3292L14.3384 17.5815L13.6785 18.208C13.5319 18.3467 13.4586 18.6248 13.4586 18.8339V19.8075L12.3586 19.9469C12.1388 19.9469 11.9189 20.0855 11.7723 20.2249L7.51968 24.3987C7.37307 24.5381 7.29955 24.7472 7.29955 25.0253V27.877C7.29955 28.2256 7.59299 28.5733 7.95944 28.7118L11.1857 29.6862L13.0188 31.6341C13.0918 31.7734 13.2388 31.8424 13.3853 31.8424L15.5849 32.6085L14.7785 33.3038C14.5585 33.5122 14.412 33.7214 14.3384 33.9995L12.7254 38.1732C8.61934 35.6692 5.83315 31.2863 5.83315 26.3473ZM13.825 1.72046C15.2917 1.79015 16.7581 2.3463 17.8581 3.38958C18.9577 4.43355 19.5444 5.75559 19.6177 7.21633C18.078 7.21633 16.6848 6.65949 15.5849 5.61621C14.4849 4.57292 13.825 3.18119 13.825 1.72046ZM23.1375 3.38958C24.2371 2.3463 25.7032 1.79015 27.1701 1.72046C27.0966 4.78131 24.5302 7.14595 21.3776 7.21633C21.4503 5.75559 22.1107 4.43355 23.1375 3.38958ZM35.1617 26.2776L31.716 28.1557C31.5691 28.2256 31.4222 28.3641 31.3495 28.5034L28.8558 32.6775H27.6828L27.9758 29.8255C28.0493 29.4779 27.8297 29.0603 27.3897 28.9209L23.9433 27.5294L21.1573 24.051L23.6502 20.6424C24.0168 20.1559 23.7237 19.39 23.0641 19.321L22.3303 19.1816L22.9899 18.068L24.8233 17.9293C25.2633 17.9293 25.6298 17.5815 25.7032 17.1641L25.9236 15.5647L27.8297 14.2426C32.2287 16.6776 35.1617 21.1295 35.1617 26.2776ZM36.995 26.6944C37.2147 18.1384 30.1023 11.1114 21.3776 10.6946V8.95513C23.3572 8.95513 25.3367 8.18991 26.7301 6.86787C28.4158 5.33745 29.2231 3.04181 29.0027 0.815869C28.9293 0.398418 28.6362 0.0506596 28.1962 0.0506596C25.1898 -0.297101 22.0372 1.16363 20.4977 3.87672C19.1044 1.37201 16.0982 -0.297101 12.7987 0.0506596C12.3587 0.12035 12.0658 0.398418 11.9922 0.815869C11.7723 3.04181 12.5788 5.26845 14.2651 6.86787C15.6582 8.18991 17.5647 8.95513 19.5444 8.95513V10.6946C10.8925 11.1811 4 17.999 4 26.3473C4 34.973 11.4056 42 20.4977 42C29.3692 42 36.6278 35.3207 36.995 26.9731C36.995 26.8345 36.995 26.7648 36.995 26.6944Z" fill="white"/>
<path d="M27.9781 21.455L28.734 23.2886C28.734 23.36 28.8097 23.4299 28.8847 23.5006L29.9435 24.9816L28.8097 26.0401L27.5245 25.1936L26.9951 23.0773L27.9781 21.455ZM25.1804 22.4421C25.0297 22.724 24.954 23.0067 25.0297 23.36L25.7098 25.8988C25.7856 26.1807 26.012 26.4627 26.2392 26.604L28.1288 27.8031C28.6582 28.0856 29.3391 28.0856 29.792 27.6618L31.6066 25.9687C32.0603 25.5462 32.136 24.911 31.7581 24.4171L30.4729 22.5834L29.2634 19.762C28.8847 18.8455 27.5245 18.7042 26.9951 19.6213L25.1804 22.4421Z" fill="white"/>
<path d="M3.00013 11.3875C2.80663 11.3875 2.61319 11.1936 2.61319 10.9997C2.61319 10.8071 2.80663 10.6132 3.00013 10.6132C3.19356 10.6132 3.38706 10.8071 3.38706 10.9997C3.38706 11.2582 3.19356 11.3875 3.00013 11.3875ZM5 10.9997C5 9.90354 4.09688 9 3.00013 9C1.90331 9 1 9.90354 1 10.9997C1 12.0965 1.90331 13 3.00013 13C4.09688 13 5 12.0965 5 10.9997Z" fill="white"/>
<path d="M36.9997 36.3868C36.8064 36.3868 36.6125 36.1936 36.6125 36.0004C36.6125 35.8064 36.8064 35.6125 36.9997 35.6125C37.1936 35.6125 37.3868 35.8064 37.3868 36.0004C37.3868 36.2584 37.1936 36.3868 36.9997 36.3868ZM36.9997 34C35.9029 34 35 34.9036 35 36.0004C35 37.0964 35.9029 38 36.9997 38C38.0965 38 39 37.0964 39 36.0004C39 34.9036 38.0965 34 36.9997 34Z" fill="white"/>
<path d="M36.4669 7.71082C36.9331 7.71082 37.3331 8.10492 37.3331 8.56557C37.3331 9.02623 36.9331 9.42098 36.4669 9.42098C36.0001 9.42098 35.6001 9.02623 35.6001 8.56557C35.6001 8.10492 36.0001 7.71082 36.4669 7.71082ZM36.4669 11C37.8667 11 39 9.88164 39 8.50032C39 7.11901 37.8667 6 36.4669 6C35.0672 6 34 7.11901 34 8.50032C34 9.88164 35.1333 11 36.4669 11Z" fill="white"/>
<path d="M0.99996 27C0.461573 27 0 27.4614 0 28.0001C0 28.5385 0.461573 29 0.99996 29C1.53842 29 2 28.5385 2 28.0001C1.9228 27.4614 1.53842 27 0.99996 27Z" fill="white"/>
<path d="M35 15.9996C35 16.5391 35.4617 17 35.9996 17C36.5383 17 37 16.5391 37 15.9996C37 15.4609 36.5383 15 35.9996 15C35.3846 15 35 15.4609 35 15.9996Z" fill="white"/>
<path d="M30 7C30.5523 7 31 7.44775 31 8.00076C31 8.55301 30.5523 9 30 9C29.4477 9 29 8.55301 29 8.00076C29 7.44775 29.4477 7 30 7Z" fill="white"/>
<path d="M7.96437 5C8.522 5 9 4.53851 9 4.00076C9 3.46224 8.522 3 7.96437 3C7.40683 3 7.00878 3.46224 7.00878 4.00076C6.92883 4.53851 7.40683 5 7.96437 5Z" fill="white"/>
<path d="M0.999886 18C1.53866 18 2 17.5376 2 16.9996C2 16.4609 1.53866 16 0.999886 16C0.461645 16 0 16.4609 0 16.9996C0 17.6154 0.461645 18 0.999886 18Z" fill="white"/>
</svg>
