<svg width="70" height="70" viewBox="0 0 70 70" fill="none" xmlns="http://www.w3.org/2000/svg">
<path d="M67.0943 55.479C67.0943 56.4724 66.2463 57.3404 65.2769 57.3404H62.4913C59.4631 53.2448 53.4078 53.2448 50.3808 57.3404H48.806C48.806 54.9833 48.806 35.9936 48.806 33.635H56.072C56.6787 33.635 57.2841 34.008 57.6469 34.5041L63.0967 43.3156C52.6823 43.3156 55.3454 43.3156 54.8613 43.3156C54.0132 43.3156 53.4078 44.0603 53.2865 44.8051C53.2865 45.6729 54.0132 46.4191 54.7399 46.4191H64.7928L66.8505 49.6451L67.0943 55.479ZM51.8331 62.0562C51.8331 59.4504 53.8919 57.4635 56.436 57.4635C58.979 57.4635 60.9165 59.5744 60.9165 62.0562C60.9165 64.6624 58.8577 66.7734 56.436 66.7734C53.8919 66.6479 51.8331 64.5393 51.8331 62.0562ZM12.5946 62.0562C12.5946 59.4504 14.6535 57.4635 17.0763 57.4635C19.6192 57.4635 21.6781 59.5744 21.6781 62.0562C21.6781 64.6624 19.6192 66.7734 17.0763 66.7734C14.5334 66.6479 12.5946 64.5393 12.5946 62.0562ZM3.51234 57.3404V52.6245H36.8168C37.6649 52.6245 38.3904 51.8798 38.3904 51.0103C38.3904 50.1415 37.6649 49.398 36.8168 49.398H3.51234V46.2946H45.8991V57.2158H23.1315C20.1033 53.1204 14.048 53.1204 11.021 57.2158H3.51234V57.3404ZM7.50874 18.618C10.0517 25.4439 16.3484 29.6626 23.2529 29.5395V43.4399H3.51234V40.3366H15.6228C16.4697 40.3366 17.1976 39.593 17.1976 38.724C17.1976 37.8549 16.4697 37.1101 15.6228 37.1101H3.51234V18.4937H7.50874V18.618ZM19.3766 16.5081C21.9195 19.1141 23.373 22.7135 23.373 26.4361C19.7406 26.5604 16.2282 25.0709 13.564 22.4649C11.021 19.8588 9.56756 16.1351 9.56756 12.4125C13.0799 12.2882 16.7123 13.7765 19.3766 16.5081ZM30.2763 16.5081C32.9405 13.7765 36.5742 12.4125 40.0865 12.4125C40.0865 16.2594 38.6331 19.8588 36.0901 22.4649C33.5472 25.0709 30.0349 26.4361 26.2799 26.4361C26.2799 22.7135 27.7333 19.1141 30.2763 16.5081ZM45.8991 18.618C45.8991 24.2031 45.8991 31.402 45.8991 37.2344H33.7886C32.9405 37.2344 32.3351 37.9792 32.3351 38.8471C32.3351 39.7161 33.0631 40.4609 33.7886 40.4609H45.8991V43.563H26.2799V29.5395C33.3045 29.6626 39.6024 25.4439 42.024 18.618H45.8991ZM50.3808 66.6479H23.1315C24.4624 64.7879 24.9477 62.5524 24.4625 60.4424C28.2174 60.4424 46.1417 60.4424 49.0474 60.4424C48.5645 62.5524 49.0474 64.7879 50.3808 66.6479ZM60.1898 32.8915C59.3418 31.402 57.7681 30.5329 56.072 30.5329H48.806V17.0042C48.806 16.1351 48.0793 15.3916 47.2313 15.3916H42.7507C42.9922 13.902 43.1147 12.2882 42.8721 10.6744C42.7508 9.92961 42.2666 9.30917 41.5399 9.30917C34.7579 8.56441 27.7333 12.2882 24.585 19.1141C21.5567 12.4125 14.5333 8.56441 7.63003 9.30917C6.9021 9.4335 6.41801 9.92961 6.29669 10.6744C6.17657 12.2882 6.1766 13.902 6.41804 15.3916H1.57476C0.72671 15.3916 0 16.1351 0 17.0042C0 19.3615 0 56.4714 0 58.9527C0 59.8221 0.72671 60.5679 1.57476 60.5679H9.32491C8.96215 62.6779 9.32495 64.911 10.6571 66.7734H1.93752C1.08948 66.7734 0.362765 67.5168 0.362765 68.3862C0.362765 69.2551 1.08948 70 1.93752 70H65.5183C66.3664 70 67.0943 69.2551 67.0943 68.3862C67.0943 67.5168 66.3664 66.7734 65.5183 66.7734H62.4913C63.8235 64.911 64.3075 62.6779 63.8234 60.5679H65.1555C67.8198 60.5679 70 58.3324 70 55.6036V49.5211C70 49.2735 69.8787 48.9008 69.7574 48.6517L60.1898 32.8915Z" fill="#001233"/>
<path d="M56.4362 48.03H54.8614C54.0134 48.03 53.2866 48.7762 53.2866 49.6437C53.2866 50.5132 54.0134 51.2566 54.8614 51.2566H56.4362C57.2842 51.2566 58.0098 50.5132 58.0098 49.6437C58.0098 48.7762 57.2842 48.03 56.4362 48.03Z" fill="#001233"/>
<path d="M56.4359 58.9525C54.7398 58.9525 53.4077 60.319 53.4077 62.0559C53.4077 63.7942 54.7398 65.1594 56.4359 65.1594C58.132 65.1594 59.463 63.7942 59.463 62.0559C59.463 60.319 58.132 58.9525 56.4359 58.9525Z" fill="#001233"/>
<path d="M17.0761 58.9525C15.38 58.9525 14.0479 60.319 14.0479 62.0559C14.0479 63.7942 15.38 65.1594 17.0761 65.1594C18.771 65.1594 20.1031 63.7942 20.1031 62.0559C20.1031 60.319 18.771 58.9525 17.0761 58.9525Z" fill="#001233"/>
<path d="M65.5183 21.7177C66.3664 21.7177 67.0943 22.4624 67.0943 23.3315C67.0943 24.2006 66.3664 24.821 65.5183 24.821C64.6715 24.821 63.9436 24.075 63.9436 23.3315C64.0649 22.3381 64.6715 21.7177 65.5183 21.7177ZM60.9165 23.2072C60.9165 25.8132 62.9754 27.8 65.5183 27.8C68.0613 27.8 70 25.6901 70 23.2072C70 20.6011 67.9411 18.4912 65.5183 18.4912C63.0967 18.4912 60.9165 20.7255 60.9165 23.2072Z" fill="#001233"/>
<path d="M22.4037 4.5919C22.7676 4.5919 23.1315 4.96367 23.1315 5.33667C23.1315 5.70843 22.7676 6.08141 22.4037 6.08141C22.0421 6.08141 21.6781 5.70843 21.6781 5.33667C21.6781 4.96367 21.9196 4.5919 22.4037 4.5919ZM22.4037 9.30786C24.4625 9.30786 26.1586 7.5697 26.1586 5.45977C26.1586 3.34983 24.4625 1.61289 22.4037 1.61289C20.346 1.61289 18.6499 3.34983 18.6499 5.45977C18.6499 7.5697 20.346 9.30786 22.4037 9.30786Z" fill="#001233"/>
<path d="M57.1626 3.10221C57.5254 3.10221 57.8882 3.47396 57.8882 3.84696C57.8882 4.21872 57.5254 4.59172 57.1626 4.59172C56.7987 4.59172 56.4359 4.21872 56.4359 3.84696C56.4359 3.47396 56.7987 3.10221 57.1626 3.10221ZM57.1626 7.69507C59.2215 7.69507 60.9164 5.95689 60.9164 3.84696C60.9164 1.73702 59.2215 7.9155e-05 57.1626 7.9155e-05C55.1038 7.9155e-05 53.4077 1.73702 53.4077 3.84696C53.4077 5.95689 55.1038 7.69507 57.1626 7.69507Z" fill="#001233"/>
<path d="M61.0377 16.0114C61.2803 16.8805 62.1284 17.251 62.9752 17.0036C63.8233 16.7549 64.1872 15.887 63.9434 15.018C63.7019 14.1489 62.8539 13.7759 62.0059 14.0245C61.159 14.2732 60.795 15.1423 61.0377 16.0114Z" fill="#001233"/>
<path d="M44.8093 6.08279C45.6574 5.83413 46.0201 4.96504 45.7775 4.09718C45.5348 3.2281 44.688 2.85511 43.84 3.10377C42.9919 3.3512 42.6291 4.22029 42.8718 5.09061C43.1144 5.95847 43.9613 6.33022 44.8093 6.08279Z" fill="#001233"/>
<path d="M55.3453 24.7005C56.1934 24.4518 56.5573 23.5839 56.3147 22.7149C56.072 21.8458 55.2252 21.4728 54.3772 21.7214C53.5291 21.9689 53.1664 22.8392 53.4078 23.7083C53.7718 24.5761 54.6198 24.9479 55.3453 24.7005Z" fill="#001233"/>
<path d="M41.7814 52.6238C42.6294 52.3763 42.9922 51.5073 42.7507 50.638C42.5081 49.769 41.6612 49.3973 40.8132 49.6444C39.9651 49.8936 39.6024 50.7611 39.8438 51.6304C40.0865 52.4994 40.9333 52.8725 41.7814 52.6238Z" fill="#001233"/>
<path d="M11.505 4.59346C12.3519 4.3448 12.7158 3.47571 12.4744 2.60785C12.2317 1.73877 11.3837 1.36578 10.5369 1.61444C9.68881 1.86187 9.32481 2.73218 9.56745 3.60127C9.80889 4.34479 10.657 4.84089 11.505 4.59346Z" fill="#001233"/>
</svg>
