<svg width="42" height="42" viewBox="0 0 42 42" fill="none" xmlns="http://www.w3.org/2000/svg">
<path d="M24.4996 40.2128V23.5777C24.4996 23.0966 24.0885 22.6841 23.6082 22.6841H11.7352L13.725 20.6907C14.0683 20.347 14.0683 19.7971 13.725 19.4534C13.3824 19.1097 12.8336 19.1097 12.4903 19.4534L11.0487 20.9656L14.7549 1.71849H20.7941L18.8722 2.68085C18.461 2.88707 18.2548 3.43699 18.461 3.84943C18.6666 4.26186 19.2154 4.46809 19.6279 4.26186L22.9216 2.61211L18.3918 15.4664C18.1863 16.0164 18.5981 16.635 19.2155 16.635H29.853L27.4507 18.5597C27.1081 18.8347 27.0389 19.3846 27.3137 19.7971C27.5884 20.2095 28.1373 20.2095 28.5491 19.9345L30.8136 18.1473L24.7058 40.2815H24.4996V40.2128ZM41.1079 40.2128H26.4901C33.49 14.8478 33.2159 15.8789 33.2159 15.8101C33.2159 15.6039 33.2159 15.329 33.0788 15.1915C33.0788 15.1915 33.0788 15.1915 33.0096 15.1227C32.8726 14.9853 32.7356 14.9165 32.5985 14.8478C32.4608 14.7791 33.2159 14.8478 20.5193 14.8478C25.598 0.412437 25.3924 1.09983 25.3924 1.0311C25.5294 0.481178 25.0491 0 24.5688 0H14.0005C13.588 0 13.2447 0.27496 13.1077 0.687397C13.1077 0.687397 8.6471 23.8527 8.71562 23.4403C8.71562 23.5777 8.7156 23.784 8.78412 23.9214C8.85264 24.0589 8.92116 24.1964 8.92116 24.1964C9.05888 24.4026 9.33365 24.4714 9.60773 24.4714H22.7154V40.2128H0.891447C0.411129 40.2128 0 40.6252 0 41.1064C0 41.5876 0.411129 42 0.891447 42C3.29372 42 40.4213 42 41.1079 42C41.5882 42 42 41.5876 42 41.1064C42 40.6252 41.5882 40.2128 41.1079 40.2128Z" fill="#001233"/>
<path d="M28.8922 6.94349C29.3726 6.94349 29.7837 7.35593 29.7837 7.83711C29.7837 8.31829 29.3726 8.73072 28.8922 8.73072C28.4119 8.73072 27.9995 8.31829 27.9995 7.83711C27.9995 7.35593 28.4119 6.94349 28.8922 6.94349ZM28.8922 10.4492C30.3332 10.4492 31.5001 9.28064 31.5001 7.83711C31.5001 6.39357 30.3332 5.225 28.8922 5.225C27.4506 5.225 26.2844 6.39357 26.2844 7.83711C26.2844 9.28064 27.4506 10.4492 28.8922 10.4492Z" fill="#001233"/>
<path d="M6.10782 30.588C6.58814 30.588 6.99997 31.0005 6.99997 31.4816C6.99997 31.9628 6.58814 32.3753 6.10782 32.3753C5.62751 32.3753 5.21571 31.9628 5.21571 31.4816C5.21571 31.0005 5.62751 30.588 6.10782 30.588ZM6.10782 34.0938C7.54878 34.0938 8.71568 32.9252 8.71568 31.4816C8.71568 30.0381 7.54878 28.8695 6.10782 28.8695C4.66687 28.8695 3.5 30.0381 3.5 31.4816C3.5 32.9252 4.66687 34.0938 6.10782 34.0938Z" fill="#001233"/>
<path d="M4.39204 4.33216C4.87235 4.33216 5.28415 4.7446 5.28415 5.22578C5.28415 5.70696 4.87235 6.1194 4.39204 6.1194C3.91172 6.1194 3.49989 5.70696 3.49989 5.22578C3.49989 4.7446 3.91172 4.33216 4.39204 4.33216ZM4.39204 7.83789C5.83367 7.83789 6.99986 6.66931 6.99986 5.22578C6.99986 3.78224 5.83367 2.61367 4.39204 2.61367C2.95108 2.61367 1.78418 3.78224 1.78418 5.22578C1.78418 6.66931 2.95108 7.83789 4.39204 7.83789Z" fill="#001233"/>
<path d="M36.7159 28.8712C37.1963 28.8712 37.6081 29.2837 37.6081 29.7648C37.6081 30.246 37.1963 30.6585 36.7159 30.6585C36.2356 30.6585 35.8238 30.246 35.8238 29.7648C35.8923 29.2149 36.2356 28.8712 36.7159 28.8712ZM36.7159 32.377C38.1569 32.377 39.3238 31.2084 39.3238 29.7648C39.3238 28.3213 38.1569 27.1527 36.7159 27.1527C35.2743 27.1527 34.1074 28.3213 34.1074 29.7648C34.1074 31.2084 35.2743 32.377 36.7159 32.377Z" fill="#001233"/>
<path d="M34.8632 12.3047C35.2064 12.6484 35.7546 12.6484 36.0979 12.3047L36.7159 11.6861L37.3333 12.3047C37.6765 12.6484 38.2261 12.6484 38.5693 12.3047C38.9119 11.961 38.9119 11.4111 38.5693 11.0674L37.9506 10.4488L38.5693 9.83009C38.9119 9.4864 38.9119 8.93648 38.5693 8.59278C38.2261 8.24908 37.6765 8.24908 37.3333 8.59278L36.7159 9.21144L36.0979 8.59278C35.7546 8.24908 35.2064 8.24908 34.8632 8.59278C34.5199 8.93648 34.5199 9.4864 34.8632 9.83009L35.4805 10.4488L34.8632 11.0674C34.5199 11.4111 34.5199 11.961 34.8632 12.3047Z" fill="#001233"/>
<path d="M2.88197 13.5411C3.22525 13.8848 3.77408 13.8848 4.11736 13.5411L4.73473 12.9224L5.35345 13.5411C5.69605 13.8848 6.24487 13.8848 6.58814 13.5411C6.93142 13.1974 6.93142 12.6474 6.58814 12.3037L5.97078 11.6851L6.58814 11.0664C6.93142 10.7227 6.93142 10.1728 6.58814 9.82911C6.24487 9.48541 5.69605 9.48541 5.35345 9.82911L4.73473 10.4478L4.11736 9.82911C3.77408 9.48541 3.22525 9.48541 2.88197 9.82911C2.53869 10.1728 2.53869 10.7227 2.88197 11.0664L3.5 11.6851L2.88197 12.3037C2.53869 12.6474 2.53869 13.1974 2.88197 13.5411Z" fill="#001233"/>
<path d="M10.9118 34.5762C11.255 34.9199 11.8039 34.9199 12.1471 34.5762L12.7645 33.9576L13.3825 34.5762C13.7251 34.9199 14.2747 34.9199 14.618 34.5762C14.9612 34.2325 14.9612 33.6826 14.618 33.3389L14.0006 32.7202L14.618 32.1016C14.9612 31.7579 14.9612 31.208 14.618 30.8643C14.2747 30.5206 13.7251 30.5206 13.3825 30.8643L12.7645 31.4829L12.1471 30.8643C11.8039 30.5206 11.255 30.5206 10.9118 30.8643C10.5685 31.208 10.5685 31.7579 10.9118 32.1016L11.5291 32.7202L10.9118 33.3389C10.5685 33.6826 10.5685 34.2325 10.9118 34.5762Z" fill="#001233"/>
<path d="M34.3827 38.0821C34.726 38.4258 35.2741 38.4258 35.6174 38.0821L36.2355 37.4634L36.8528 38.0821C37.1961 38.4258 37.7456 38.4258 38.0889 38.0821C38.4308 37.7384 38.4308 37.1885 38.0889 36.8448L37.4702 36.2261L38.0889 35.6074C38.4308 35.2637 38.4308 34.7138 38.0889 34.3701C37.7456 34.0264 37.1961 34.0264 36.8528 34.3701L36.2355 34.9888L35.6174 34.3701C35.2741 34.0264 34.726 34.0264 34.3827 34.3701C34.0394 34.7138 34.0394 35.2637 34.3827 35.6074L35.0001 36.2261L34.3827 36.8448C34.0394 37.1885 34.0394 37.7384 34.3827 38.0821Z" fill="#001233"/>
<path d="M15.7847 10.4475H17.4997V12.166H15.7847V10.4475Z" fill="#001233"/>
<path d="M17.4998 6.94361H19.2155V8.66211H17.4998V6.94361Z" fill="#001233"/>
<path d="M14.8918 13.9555H16.6076V15.674H14.8918V13.9555Z" fill="#001233"/>
</svg>
