<svg width="40" height="40" viewBox="0 0 40 40" fill="none" xmlns="http://www.w3.org/2000/svg">
<path d="M20 22C18.8133 22 17.6533 21.6481 16.6666 20.9888C15.6799 20.3295 14.9109 19.3925 14.4567 18.2961C14.0026 17.1997 13.8838 15.9933 14.1153 14.8295C14.3468 13.6656 14.9182 12.5965 15.7574 11.7574C16.5965 10.9182 17.6656 10.3468 18.8295 10.1153C19.9933 9.88378 21.1997 10.0026 22.2961 10.4567C23.3925 10.9109 24.3295 11.6799 24.9888 12.6666C25.6481 13.6533 26 14.8133 26 16C25.9981 17.5907 25.3653 19.1157 24.2405 20.2405C23.1157 21.3653 21.5907 21.9981 20 22ZM20 12.4C19.288 12.4 18.592 12.6111 17.9999 13.0067C17.4079 13.4023 16.9465 13.9645 16.674 14.6223C16.4016 15.2802 16.3303 16.004 16.4692 16.7023C16.6081 17.4007 16.9509 18.0421 17.4544 18.5456C17.9579 19.0491 18.5993 19.3919 19.2977 19.5308C19.996 19.6697 20.7198 19.5984 21.3777 19.326C22.0355 19.0535 22.5977 18.5921 22.9933 18.0001C23.3889 17.408 23.6 16.712 23.6 16C23.599 15.0455 23.2195 14.1304 22.5445 13.4555C21.8696 12.7805 20.9545 12.401 20 12.4Z" fill="#001233"/>
<path d="M20 37L10.0302 24.9191C9.89165 24.7377 9.75456 24.5551 9.61892 24.3714C7.91675 22.066 6.99684 19.2509 7.00001 16.3571C7.00001 12.8146 8.36965 9.41717 10.8076 6.91222C13.2456 4.40727 16.5522 3 20 3C23.4478 3 26.7544 4.40727 29.1924 6.91222C31.6304 9.41717 33 12.8146 33 16.3571C33.0027 19.2495 32.0833 22.0632 30.3823 24.3678L30.3811 24.3714C30.3811 24.3714 30.0265 24.8499 29.9734 24.9142L20 37ZM11.5063 22.9082C11.5063 22.9082 11.7816 23.2822 11.8443 23.3624L20 33.2454L28.1664 23.349C28.2184 23.2822 28.4949 22.9058 28.4961 22.9046C29.8873 21.0214 30.6392 18.7214 30.6364 16.3571C30.6364 13.4587 29.5157 10.679 27.521 8.62948C25.5263 6.57997 22.8209 5.42857 20 5.42857C17.1791 5.42857 14.4737 6.57997 12.479 8.62948C10.4843 10.679 9.36364 13.4587 9.36364 16.3571C9.36073 18.7229 10.1134 21.0244 11.5063 22.9082Z" fill="#001233"/>
</svg>
