<svg width="30" height="30" viewBox="0 0 30 30" fill="none" xmlns="http://www.w3.org/2000/svg">
<path d="M6.896 28.698L8.14063 26.8451C10.8999 26.8451 18.1514 26.8451 20.9111 26.8451L22.101 28.698H6.896ZM13.6602 13.4223C14.2012 13.5723 14.8506 13.5723 15.391 13.4223L18.4219 25.5928H16.582V22.4374C16.582 22.0872 16.2573 21.7862 15.8789 21.7862C15.5 21.7862 15.1748 22.0872 15.1748 22.4374V25.5928H13.8222V22.4374C13.8222 22.0872 13.4975 21.7862 13.1186 21.7862C12.7402 21.7862 12.4692 22.0872 12.4692 22.4374V25.5928H10.6294L13.6602 13.4223ZM9.92627 13.773C8.03275 14.7745 6.57128 15.2757 5.81398 15.4252C6.35499 14.8748 7.54487 13.9732 9.43945 12.9718C10.2504 12.5207 11.0625 12.1705 11.7661 11.8695C11.8745 12.0701 11.9824 12.2703 12.0908 12.4209C11.4956 12.8714 10.7383 13.3726 9.92627 13.773ZM14.0385 4.35703C14.0385 4.30736 14.0385 4.30736 14.0385 4.30736C14.1469 3.00536 14.3096 2.10326 14.4717 1.55285C14.688 2.25378 14.9585 3.65611 14.9585 5.65902C14.9585 6.51046 14.9042 7.3624 14.7964 8.1135C14.5801 8.06332 14.3632 8.06332 14.0933 8.1135C13.9843 6.91135 13.9843 5.55918 14.0385 4.35703ZM23.1835 15.4252C22.4262 15.2757 20.9648 14.7745 19.0713 13.773C18.2592 13.322 17.5019 12.8714 16.8525 12.4209C17.0151 12.2703 17.123 12.0701 17.1772 11.8695C17.9351 12.1705 18.746 12.5207 19.5044 12.9718C21.4521 13.9732 22.6425 14.925 23.1835 15.4252ZM12.9023 10.8178C12.9023 10.0166 13.6054 9.36532 14.4717 9.36532C15.3374 9.36532 16.0405 10.0166 16.0405 10.8178C16.0405 11.6191 15.3374 12.2703 14.4717 12.2703C13.6602 12.2703 12.9023 11.6191 12.9023 10.8178ZM25.3481 28.698H23.7251L21.8847 25.8933C21.7768 25.6926 21.5605 25.5928 21.29 25.5928H19.7744L16.9067 14.0234C18.3677 14.925 20.4238 15.9766 22.101 16.4778C22.9673 16.7282 24.2661 17.0282 24.6987 16.2772C25.186 15.5261 24.2661 14.6746 23.5625 14.0736C21.9931 12.7716 19.4502 11.3687 17.3935 10.6176C17.3393 9.7662 16.8525 9.01511 16.0952 8.56406C16.2031 8.01365 16.2573 7.41258 16.2573 6.8115H17.8266C18.2056 6.8115 18.5297 6.51047 18.5297 6.16025C18.5297 5.80955 18.2056 5.55919 17.8266 5.55919H16.3115C16.3115 5.359 16.3115 5.1588 16.3115 4.90843H25.9975C26.3759 4.90843 26.647 5.20848 26.647 5.55919C26.647 5.9099 26.3222 6.16025 25.9975 6.16025C25.6186 6.16025 25.2944 6.4608 25.2944 6.8115C25.2944 7.16221 25.6186 7.46225 25.9975 7.46225C27.1337 7.46225 28 6.61081 28 5.60935C28 4.55772 27.0801 3.75597 25.9975 3.75597H16.2573C16.2031 3.10522 16.0952 2.50414 15.9868 2.00341C15.7705 1.15198 15.4458 0 14.4717 0C13.5517 0 13.1734 1.15198 12.956 2.00341C12.8481 2.50414 12.7402 3.10522 12.6855 3.75597H8.35691C7.97799 3.75597 7.70749 4.05699 7.70749 4.35703C7.70749 4.70774 8.03274 5.00828 8.35691 5.00828H12.6318C12.6318 5.20848 12.6318 5.40866 12.6318 5.65902H5.05614C4.67776 5.65902 4.35252 5.35899 4.35252 5.00828C4.35252 4.65807 4.67776 4.35703 5.05614 4.35703C5.43506 4.35703 5.75924 4.057 5.75924 3.75597C5.75924 3.40575 5.43506 3.10521 5.05614 3.10521C3.91939 3.10521 3.05367 3.95665 3.05367 4.95811C3.05367 5.96006 3.9736 6.8115 5.05614 6.8115H12.6855C12.7402 7.46225 12.7944 8.01365 12.8481 8.56406C12.145 9.01511 11.604 9.7662 11.5493 10.6176C9.54734 11.3687 6.95021 12.7716 5.38087 14.0736C4.67778 14.6746 3.8115 15.5261 4.24463 16.2772C4.73143 17.0282 5.97606 16.7282 6.84178 16.4778C8.51954 15.9766 10.5757 14.925 12.0366 14.0234L9.16895 25.5928H7.65329C7.437 25.5928 7.22071 25.6926 7.05809 25.8933L5.32665 28.698H3.7031C3.32472 28.698 3 28.9985 3 29.3493C3 29.6995 3.32472 30 3.7031 30C4.51514 30 24.2661 30 25.3481 30C25.727 30 26.0517 29.6995 26.0517 29.3493C25.9975 28.9985 25.727 28.698 25.3481 28.698Z" fill="#001233"/>
<path d="M19.6442 3H23.3563C23.7025 3 24 2.76918 24 2.5002C24 2.23083 23.7025 2 23.3563 2H19.6442C19.2975 2 19 2.23083 19 2.5002C19.0501 2.76918 19.2975 3 19.6442 3Z" fill="#001233"/>
<path d="M19.6196 7C19.2862 7 19 7.23044 19 7.4998C19 7.76917 19.2862 8 19.6196 8H21.4286C21.7615 8 22 7.76917 22 7.4998C22 7.23044 21.7138 7 21.4286 7H19.6196Z" fill="#001233"/>
<path d="M10.3156 9C10.6841 9 11 8.76918 11 8.5002C11 8.23083 10.6841 8 10.3156 8H5.6839C5.31533 8 5 8.23083 5 8.5002C5 8.76918 5.31533 9 5.6839 9H10.3156Z" fill="#001233"/>
<path d="M1.72188 2H7.27758C7.66662 2 8 1.76888 8 1.5C8 1.23074 7.66662 1 7.27758 1H1.72188C1.33284 1 1 1.23074 1 1.5C1.0551 1.76888 1.33284 2 1.72188 2Z" fill="#001233"/>
<path d="M3.02672 24.6841C2.65323 24.6841 2.33314 24.3683 2.33314 23.9997C2.33314 23.6317 2.65323 23.3159 3.02672 23.3159C3.40022 23.3159 3.71973 23.6317 3.71973 23.9997C3.66683 24.3683 3.40022 24.6841 3.02672 24.6841ZM5 23.9997C5 22.8947 4.09325 22 3.02672 22C1.95967 22 1 22.8947 1 23.9997C1 25.1048 1.90623 26 3.02672 26C4.14668 26 5 25.1048 5 23.9997Z" fill="#001233"/>
<path d="M2.50143 11.1614C2.64673 11.1614 2.79157 11.3068 2.79157 11.4518C2.79157 11.5967 2.64673 11.7421 2.50143 11.7421C2.35613 11.7421 2.21132 11.5967 2.21132 11.4518C2.16289 11.3068 2.30818 11.1614 2.50143 11.1614ZM2.50143 13C3.32337 13 4 12.3228 4 11.5002C4 10.6777 3.32337 10 2.50143 10C1.6795 10 1.0024 10.6777 1.0024 11.5002C0.954446 12.2744 1.63107 13 2.50143 13Z" fill="#001233"/>
<path d="M27.5006 20.8634C26.9319 20.8634 26.4208 20.5 26.4208 20C26.4208 19.5451 26.875 19.1362 27.5006 19.1362C28.125 19.1362 28.5798 19.5 28.5798 20C28.5229 20.4545 28.0686 20.8634 27.5006 20.8634ZM27.5006 18C26.1367 18 25 18.9089 25 20C25 21.0911 26.1367 22 27.5006 22C28.8638 22 30 21.0911 30 20C29.9436 18.9089 28.8638 18 27.5006 18Z" fill="#001233"/>
<path d="M21.3412 18.024C21.0635 18.1034 20.9448 18.3807 21.0242 18.6588C21.1033 18.9365 21.3809 19.0552 21.6586 18.9758C21.9359 18.8967 22.0551 18.6191 21.976 18.3414C21.8569 18.0641 21.5792 17.9449 21.3412 18.024Z" fill="#001233"/>
<path d="M26.3411 11.024C26.0634 11.1035 25.945 11.3808 26.0241 11.6585C26.1035 11.9366 26.3808 12.055 26.6586 11.9759C26.9363 11.8965 27.055 11.6192 26.976 11.3415C26.8568 11.0637 26.5791 10.945 26.3411 11.024Z" fill="#001233"/>
<path d="M7.65842 19.9605C7.9361 19.8823 8.05528 19.6094 7.97584 19.3361C7.89639 19.0627 7.6187 18.9458 7.34103 19.0236C7.06374 19.1018 6.94496 19.3748 7.02402 19.6481C7.10346 19.9218 7.38114 20.0778 7.65842 19.9605Z" fill="#001233"/>
<path d="M25.3416 25.0206C25.0639 25.1003 24.9447 25.379 25.0242 25.6572C25.1032 25.9359 25.3813 26.0555 25.6589 25.9757C25.9366 25.8964 26.055 25.6174 25.9759 25.3387C25.8568 25.1003 25.5791 24.9413 25.3416 25.0206Z" fill="#001233"/>
<path d="M3.02075 8.65868C3.10047 8.93592 3.37873 9.05507 3.65739 8.97603C3.93604 8.8962 4.05524 8.61857 3.9759 8.34132C3.89578 8.06368 3.61751 7.94453 3.33885 8.02436C3.10046 8.14312 2.94102 8.42037 3.02075 8.65868Z" fill="#001233"/>
<path d="M9.49999 1C9.77644 1 10 1.22397 10 1.5C10 1.77603 9.77644 2 9.49999 2C9.22395 2 9 1.77603 9 1.5C9 1.22397 9.22395 1 9.49999 1Z" fill="#001233"/>
<path d="M0.658599 19.9605C0.93627 19.8823 1.05504 19.6094 0.975987 19.3361C0.896146 19.0627 0.618882 18.9458 0.341211 19.0236C0.06354 19.1018 -0.0552395 19.3748 0.0242075 19.6481C0.142985 19.9218 0.420651 20.0778 0.658599 19.9605Z" fill="#001233"/>
<path d="M23.3416 7.02421C23.0639 7.10326 22.9447 7.38093 23.0242 7.65859C23.1032 7.93626 23.3809 8.05504 23.659 7.97599C23.9363 7.89615 24.055 7.61887 23.976 7.3412C23.8965 7.06353 23.6189 6.94476 23.3416 7.02421Z" fill="#001233"/>
</svg>
