<svg width="30" height="30" viewBox="0 0 30 30" fill="none" xmlns="http://www.w3.org/2000/svg">
<path d="M28.6523 18.7622L20.8654 25.9403H18.07C17.7205 25.9403 17.421 26.2374 17.421 26.584C17.421 26.9307 17.7205 27.2272 18.07 27.2272H20.5158V28.7622H16.5224V22.079C16.5224 21.8811 16.4228 21.7323 16.2728 21.584L15.9233 21.3361C23.8603 14.9995 23.5107 15.2966 23.5107 15.2966C23.8603 14.9995 24.4093 14.9995 24.8089 15.2966C25.3079 15.6928 25.3079 16.4352 24.8584 16.831L20.1663 21.0886C19.9168 21.336 19.9168 21.7323 20.1163 21.9798C20.3658 22.2277 20.7654 22.2277 21.0149 22.0294L25.757 17.7227C26.4061 17.1286 26.6556 16.287 26.4061 15.4949C26.4061 15.4454 26.4061 15.9403 26.3561 7.37603C26.3561 6.73231 26.8551 6.23735 27.5042 6.23735C28.1533 6.23735 28.6523 6.73231 28.6523 7.37603V18.7622ZM14.6256 28.7622V22.3755L14.925 22.1777L15.2247 22.3755V28.7622H14.6256ZM9.38429 27.1781H11.8302C12.1797 27.1781 12.4793 26.8806 12.4793 26.5344C12.4793 26.1878 12.1797 25.8912 11.8302 25.8912H9.03485L1.19795 18.7622V7.37603C1.19795 6.73231 1.69711 6.23735 2.34594 6.23735C2.99496 6.23735 3.49398 6.73231 3.49398 7.37603C3.44427 15.9403 3.44427 15.3958 3.44427 15.4949C3.2445 16.287 3.49398 17.1777 4.0929 17.7227L8.83508 22.0294C9.0849 22.2768 9.4843 22.2277 9.73379 21.9798C9.98327 21.7323 9.93336 21.336 9.68368 21.0886L4.94175 16.7819C4.4925 16.3365 4.4925 15.6427 4.99166 15.2475C5.39101 14.9499 5.94007 14.9499 6.28952 15.2475C6.28952 15.2475 5.94007 14.9499 13.8768 21.2869L13.5774 21.5344C13.4277 21.6336 13.3279 21.8315 13.3279 22.0294V28.7622H9.33439L9.38429 27.1781ZM27.5042 5C26.1565 5 25.1084 6.08858 25.1084 7.37603L25.1579 14.0096C24.3593 13.663 23.4607 13.7617 22.7621 14.3558L14.925 20.5441L7.13797 14.3558C6.43923 13.8113 5.54053 13.663 4.74218 14.0096L4.79184 7.37603C4.79184 6.03948 3.69375 5 2.39604 5C1.09794 5 0 6.08858 0 7.37603V19.0096C0 19.1584 0.0497103 19.3563 0.199627 19.455L8.1864 26.7819V29.3558C8.1864 29.7025 8.48578 30 8.83508 30C9.58392 30 20.4158 30 21.1649 30C21.514 30 21.8135 29.7025 21.8135 29.3558V26.7819L29.8005 19.455C29.95 19.3563 30 19.1584 30 19.0096V7.37603C29.9 6.08858 28.8019 5 27.5042 5Z" fill="#001233"/>
<path d="M2.97334 26.6319C2.59999 26.6319 2.27991 26.3161 2.27991 25.9475C2.27991 25.5795 2.59999 25.2632 2.97334 25.2632C3.34674 25.2632 3.66661 25.5795 3.66661 25.9475C3.61329 26.3161 3.29342 26.6319 2.97334 26.6319ZM2.97334 24C1.85339 24 1 24.8947 1 26.0003C1 27.1053 1.90671 28 2.97334 28C4.09328 28 5 27.1053 5 26.0003C4.94668 24.8947 4.03975 24 2.97334 24Z" fill="#001233"/>
<path d="M26.5002 26.7906C26.3548 26.7906 26.2099 26.6452 26.2099 26.5002C26.2099 26.3548 26.3548 26.2099 26.5002 26.2099C26.6452 26.2099 26.7906 26.3548 26.7906 26.5002C26.8386 26.6452 26.6936 26.7906 26.5002 26.7906ZM26.5002 25C25.6777 25 25 25.6777 25 26.5002C25 27.3228 25.6777 28 26.5002 28C27.3228 28 28 27.3228 28 26.5002C28 25.6777 27.3228 25 26.5002 25Z" fill="#001233"/>
<path d="M22.5 7.16141C22.6454 7.16141 22.7904 7.30635 22.7904 7.45129C22.7904 7.5967 22.6454 7.74212 22.5 7.74212C22.355 7.74212 22.2096 7.5967 22.2096 7.45129C22.2096 7.30635 22.355 7.16141 22.5 7.16141ZM22.5 9C23.3227 9 24 8.32283 24 7.50024C24 6.67717 23.3227 6 22.5 6C21.6773 6 21 6.6287 21 7.45129C21 8.27388 21.6773 9 22.5 9Z" fill="#001233"/>
<path d="M9.02674 4.29741C9.39992 4.29741 9.71993 4.62123 9.71993 4.99973C9.71993 5.37823 9.39992 5.70258 9.02674 5.70258C8.65335 5.70258 8.33333 5.37823 8.33333 4.99973C8.33333 4.62123 8.65335 4.29741 9.02674 4.29741ZM9.02674 7C10.1466 7 11 6.08109 11 4.99973C11 3.91891 10.0931 3 9.02674 3C7.90684 3 7 3.91891 7 4.99973C7 6.08109 7.90684 7 9.02674 7Z" fill="#001233"/>
<path d="M12.4387 13.8313C13.0172 13.8813 13.3546 13.9317 13.644 14.1833C14.2708 14.8883 14.5601 15.794 14.5121 16.7507C12.728 16.8011 11.3298 15.4925 11.2332 13.6296C11.6671 13.7804 12.0529 13.7804 12.4387 13.8313ZM16.3926 14.1833C16.6819 13.8813 17.0195 13.8313 17.5977 13.7804C17.9354 13.73 18.3696 13.73 18.8034 13.5797C18.7551 15.3916 17.4533 16.7007 15.669 16.7507C15.669 16.7007 15.669 16.6498 15.669 16.499C15.669 16.2469 15.669 15.9957 15.6211 15.7441C15.7656 15.14 16.0066 14.5858 16.3926 14.1833ZM10.4616 12.0189C10.2688 12.1198 10.1242 12.2706 10.0758 12.5222C9.54566 15.7441 11.8599 18.3619 14.9943 17.9589C18.1281 18.3619 20.4911 15.7441 19.9124 12.5222C19.8158 12.0689 19.3338 11.8676 18.9961 12.1198C18.514 12.4718 18.032 12.5222 17.5016 12.5726C16.8746 12.6231 16.1515 12.7234 15.5245 13.378C15.3318 13.5797 15.1386 13.8313 14.9943 14.0825C14.8495 13.8313 14.6565 13.5797 14.4637 13.378C13.8852 12.7234 13.1618 12.673 12.4871 12.6231C11.9565 12.5726 11.4741 12.5726 11.0404 12.1697C10.8957 12.0189 10.6546 11.9685 10.4616 12.0189Z" fill="#001233"/>
<path d="M16.119 3.65649L15.6901 5.36884C15.5946 5.78432 15.8807 6.19978 16.2623 6.19978H18.2168L15.9285 9.41803L16.3579 7.70465C16.4529 7.28969 16.1668 6.87423 15.7857 6.87423H13.8307L16.119 3.65649ZM12.591 8.12013H14.9751L13.926 12.1688C13.8307 12.5843 14.1168 12.9998 14.4983 12.9998C14.689 12.9998 14.8318 12.8958 14.9751 12.7403L19.8857 5.9403C20.0289 5.73231 20.029 5.47335 19.9334 5.26536C19.8379 5.05788 19.6473 4.90188 19.409 4.90188H17.0251L18.074 0.853209C18.1695 0.541732 18.0262 0.230249 17.7879 0.074769C17.5496 -0.0812263 17.2157 0.0232868 17.0729 0.230251L12.1144 7.08222C11.971 7.2897 11.971 7.54969 12.0666 7.75717C12.1619 8.01664 12.3527 8.12013 12.591 8.12013Z" fill="#001233"/>
<path d="M5.47979 3.99976C5.75995 3.99976 6 3.76901 6 3.50013C6 3.23087 5.75995 2.99976 5.47979 2.99976C5.1999 2.99976 5 3.23087 5 3.50013C5 3.76901 5.23989 3.99976 5.47979 3.99976Z" fill="#001233"/>
<path d="M7.49998 8.99976C7.77616 8.99976 8 9.22372 8 9.49995C8 9.77579 7.77616 9.99976 7.49998 9.99976C7.22399 9.99976 7 9.77579 7 9.49995C7 9.22372 7.22399 8.99976 7.49998 8.99976Z" fill="#001233"/>
<path d="M22 11.5196C22 11.7998 22.2304 11.9998 22.4998 11.9998C22.7692 11.9998 23 11.7597 23 11.5196C23 11.2394 22.7692 10.9998 22.4998 10.9998C22.2304 11.0394 22 11.2394 22 11.5196Z" fill="#001233"/>
<path d="M22.4998 2.99976C22.7692 2.99976 23 2.76893 23 2.49995C23 2.23059 22.7692 1.99976 22.4998 1.99976C22.2304 1.99976 22 2.23059 22 2.49995C22 2.76893 22.2304 2.99976 22.4998 2.99976Z" fill="#001233"/>
<path d="M23.5002 26.9998C23.2308 26.9998 23 27.2302 23 27.4996C23 27.7685 23.2308 27.9998 23.5002 27.9998C23.7692 27.9998 24 27.7685 24 27.4996C24 27.192 23.7692 26.9998 23.5002 26.9998Z" fill="#001233"/>
<path d="M6.49998 27.9998C6.23055 27.9998 6 28.2397 6 28.5198C6 28.7994 6.23055 28.9998 6.49998 28.9998C6.76914 28.9998 7 28.7598 7 28.5198C6.96154 28.2397 6.73068 27.9998 6.49998 27.9998Z" fill="#001233"/>
</svg>
