<svg width="24" height="24" viewBox="0 0 24 24" fill="none" xmlns="http://www.w3.org/2000/svg">
<circle cx="12" cy="12" r="12" fill="#06C15A"/>
<path d="M10.3799 15.81C10.181 15.81 9.99031 15.7309 9.84969 15.5903L6.96969 12.7103C6.89806 12.6411 6.84092 12.5583 6.80161 12.4668C6.76231 12.3753 6.74162 12.2769 6.74075 12.1773C6.73989 12.0777 6.75886 11.979 6.79657 11.8868C6.83428 11.7946 6.88997 11.7109 6.96039 11.6405C7.03081 11.57 7.11455 11.5143 7.20672 11.4766C7.2989 11.4389 7.39766 11.4199 7.49724 11.4208C7.59682 11.4217 7.69524 11.4424 7.78674 11.4817C7.87825 11.521 7.961 11.5781 8.03019 11.6498L10.3799 13.9995L15.9697 8.40975C16.1111 8.27313 16.3006 8.19754 16.4972 8.19925C16.6939 8.20096 16.882 8.27983 17.0211 8.41889C17.1601 8.55794 17.239 8.74605 17.2407 8.9427C17.2424 9.13935 17.1668 9.3288 17.0302 9.47025L10.9102 15.5903C10.7696 15.7309 10.5788 15.81 10.3799 15.81Z" fill="white"/>
</svg>
