<svg width="40" height="40" viewBox="0 0 40 40" fill="none" xmlns="http://www.w3.org/2000/svg">
<path d="M33.25 35C29.7778 35 26.3472 34.2433 22.9583 32.73C19.5694 31.2167 16.4861 29.0706 13.7083 26.2917C10.9306 23.5128 8.785 20.4294 7.27167 17.0417C5.75833 13.6539 5.00111 10.2233 5 6.75C5 6.25 5.16667 5.83333 5.5 5.5C5.83333 5.16667 6.25 5 6.75 5H13.5C13.8889 5 14.2361 5.13222 14.5417 5.39667C14.8472 5.66111 15.0278 5.97333 15.0833 6.33333L16.1667 12.1667C16.2222 12.6111 16.2083 12.9861 16.125 13.2917C16.0417 13.5972 15.8889 13.8611 15.6667 14.0833L11.625 18.1667C12.1806 19.1944 12.84 20.1872 13.6033 21.145C14.3667 22.1028 15.2072 23.0267 16.125 23.9167C16.9861 24.7778 17.8889 25.5767 18.8333 26.3133C19.7778 27.05 20.7778 27.7233 21.8333 28.3333L25.75 24.4167C26 24.1667 26.3267 23.9794 26.73 23.855C27.1333 23.7306 27.5289 23.6956 27.9167 23.75L33.6667 24.9167C34.0556 25.0278 34.375 25.2294 34.625 25.5217C34.875 25.8139 35 26.14 35 26.5V33.25C35 33.75 34.8333 34.1667 34.5 34.5C34.1667 34.8333 33.75 35 33.25 35Z" fill="#001233"/>
</svg>
