<svg width="74" height="70" viewBox="0 0 74 70" fill="none" xmlns="http://www.w3.org/2000/svg">
<path d="M37.1864 4.38188C42.2507 11.5651 50.6528 19.2349 50.6528 25.4437C50.6528 29.8268 48.5513 33.6001 45.3398 36.0344C45.5873 35.1819 45.8336 34.2087 45.8336 33.2343C45.8336 31.8964 45.3398 30.4354 44.3509 28.8524C43.8571 28.1219 42.9933 27.878 42.2507 28.3658C41.5106 28.8524 41.2631 29.7037 41.7569 30.4354C42.4983 31.5306 42.8683 32.5038 42.8683 33.2343C42.8683 36.2771 40.398 38.7125 37.309 38.7125C34.2211 38.7125 31.7509 36.2771 31.7509 33.2343C31.7509 30.922 35.0862 27.634 37.4339 24.5912C37.8028 25.0778 38.1741 25.5645 38.5453 25.9303C39.0392 26.5389 40.028 26.6608 40.7681 26.173C41.3856 25.6864 41.5106 24.7132 41.0168 23.9827C40.2743 23.0082 39.4092 22.035 38.7916 21.0606C38.174 20.0862 36.8152 20.0862 36.1976 21.0606C33.8511 24.8351 28.7856 28.8524 28.7856 33.1123C28.7856 34.0868 28.9094 35.0612 29.2794 35.9136C26.0666 33.4782 23.9664 29.5829 23.9664 25.3218C23.4726 19.113 31.9972 11.5651 37.1864 4.38188ZM37.0627 41.7566C46.2049 41.7566 53.7406 34.4526 53.7406 25.3218C53.7406 17.1653 43.4871 8.64424 38.5453 0.730503C38.2978 0.243893 37.8028 -1.90735e-05 37.1864 -1.90735e-05C36.6914 -1.90735e-05 36.1976 0.243893 35.8263 0.730503C30.762 8.76498 20.3848 17.0434 20.3848 25.3218C20.3848 34.4526 27.9205 41.7566 37.0627 41.7566Z" fill="#001233"/>
<path d="M67.2068 56.366C65.8467 56.366 34.591 56.366 32.8621 56.366C34.4685 54.0537 34.4685 51.0109 32.8621 48.8182H67.2068C69.3058 48.8182 71.0359 50.5231 71.0359 52.5927C71.0359 54.6623 69.3058 56.366 67.2068 56.366ZM51.0226 63.1846C51.0226 65.2542 49.2925 66.9579 47.1935 66.9579H12.725C14.3302 64.6456 14.3302 61.6016 12.725 59.2881C14.4552 59.2881 45.8334 59.2881 47.0698 59.2881C49.17 59.41 51.0226 61.115 51.0226 63.1846ZM3.08905 63.1846C3.08905 61.115 4.81921 59.4101 6.9182 59.4101C9.01841 59.4101 10.7473 61.115 10.7473 63.1846C10.7473 65.2542 9.01841 66.9579 6.9182 66.9579C4.81921 67.0799 3.08905 65.2542 3.08905 63.1846ZM23.2261 52.5927C23.2261 50.5231 24.9551 48.8182 27.0553 48.8182C29.1555 48.8182 30.8856 50.5231 30.8856 52.5927C30.8856 54.6623 29.1555 56.366 27.0553 56.366C24.9551 56.366 23.2261 54.6623 23.2261 52.5927ZM67.2068 45.7753H27.0553C23.2261 45.7753 20.1371 48.8182 20.1371 52.5927C20.1371 54.0537 20.6321 55.2709 21.3722 56.366H6.9182C3.08905 56.366 0 59.4101 0 63.1846C0 66.9579 3.08905 70.0007 6.9182 70.0007H47.0698C50.8989 70.0007 53.9868 66.9579 53.9868 63.1846C53.9868 61.7236 53.4929 60.5064 52.7528 59.4101H67.0831C70.9122 59.4101 74 56.366 74 52.5927C74 48.8182 71.0359 45.7753 67.2068 45.7753Z" fill="#001233"/>
<path d="M7.78317 25.9315C8.64825 25.9315 9.38956 26.662 9.38956 27.3925C9.38956 28.245 8.64825 28.9755 7.78317 28.9755C6.91809 28.9755 6.17798 28.245 6.17798 27.3925C6.17798 26.662 6.91809 25.9315 7.78317 25.9315ZM7.78317 32.0183C10.3784 32.0183 12.4774 29.9487 12.4774 27.5145C12.4774 24.9583 10.3784 23.0094 7.78317 23.0094C5.18915 23.0094 3.21272 25.079 3.21272 27.5145C3.08896 29.9487 5.18915 32.0183 7.78317 32.0183Z" fill="#001233"/>
<path d="M59.4236 39.688C59.0523 39.688 58.6823 39.3234 58.6823 38.9575C58.6823 38.5929 59.0523 38.227 59.4236 38.227C59.7937 38.227 60.1637 38.5929 60.1637 38.9575C60.1637 39.3234 59.9174 39.688 59.4236 39.688ZM59.4236 35.0622C57.3234 35.0622 55.5933 36.766 55.5933 38.8368C55.5933 40.9064 57.3234 42.6101 59.4236 42.6101C61.5238 42.6101 63.2528 40.9064 63.2528 38.8368C63.2528 36.766 61.5238 35.0622 59.4236 35.0622Z" fill="#001233"/>
<path d="M22.3609 3.1668C22.7322 3.1668 23.1022 3.53025 23.1022 3.89611C23.1022 4.26198 22.7322 4.62785 22.3609 4.62785C21.9908 4.62785 21.6195 4.26198 21.6195 3.89611C21.6195 3.40951 21.9908 3.1668 22.3609 3.1668ZM22.3609 7.67065C24.4611 7.67065 26.1912 5.96571 26.1912 3.89611C26.1912 1.82652 24.4611 0.122782 22.3609 0.122782C20.2607 0.122782 18.5317 1.82652 18.5317 3.89611C18.5317 5.96571 20.2607 7.67065 22.3609 7.67065Z" fill="#001233"/>
<path d="M64.1177 15.3396C65.3528 15.3396 66.4642 16.3128 66.4642 17.6531C66.4642 18.869 65.4766 19.9654 64.1177 19.9654C62.8813 19.9654 61.77 18.9909 61.77 17.6531C61.77 16.3128 62.7588 15.3396 64.1177 15.3396ZM64.1177 22.8875C67.083 22.8875 69.5545 20.452 69.5545 17.5299C69.5545 14.6078 67.083 12.1748 64.1177 12.1748C61.1524 12.1748 58.6821 14.6078 58.6821 17.5299C58.6821 20.452 61.1524 22.8875 64.1177 22.8875Z" fill="#001233"/>
<path d="M4.57031 42.7322C4.57031 43.5847 5.31282 44.3152 6.1779 44.3152C7.04175 44.3152 7.78309 43.5847 7.78309 42.7322C7.78309 41.8809 7.04175 41.1504 6.1779 41.1504C5.31282 41.1504 4.57031 41.8809 4.57031 42.7322Z" fill="#001233"/>
<path d="M55.5932 7.67065C56.4583 7.67065 57.1996 6.94013 57.1996 6.08886C57.1996 5.23639 56.4583 4.50468 55.5932 4.50468C54.7281 4.50468 53.9868 5.23639 53.9868 6.08886C53.9868 6.94013 54.7281 7.67065 55.5932 7.67065Z" fill="#001233"/>
<path d="M18.5317 15.3386C19.3956 15.3386 20.1369 14.6069 20.1369 13.7556C20.1369 12.9032 19.3956 12.2946 18.5317 12.2946C17.6667 12.2946 16.9253 13.0251 16.9253 13.7556C17.0491 14.6069 17.6667 15.3386 18.5317 15.3386Z" fill="#001233"/>
<path d="M61.77 27.5137C60.9062 27.5137 60.1636 28.2442 60.1636 29.0955C60.1636 29.9479 60.9062 30.6785 61.77 30.6785C62.6351 30.6785 63.2526 29.9479 63.2526 29.0955C63.2526 28.2442 62.6351 27.5137 61.77 27.5137Z" fill="#001233"/>
<path d="M20.1372 38.1053C20.1372 38.9577 20.8785 39.6882 21.7436 39.6882C22.6087 39.6882 23.2263 38.9577 23.2263 38.1053C23.2263 37.2528 22.4849 36.5235 21.7436 36.5235C21.0035 36.5235 20.1372 37.2528 20.1372 38.1053Z" fill="#001233"/>
</svg>
