<svg width="40" height="42" viewBox="0 0 40 42" fill="none" xmlns="http://www.w3.org/2000/svg">
<path d="M37.7561 27.3326L26.0504 38.6226L10.754 38.0682L7.01973 34.467C6.66052 34.1207 6.086 34.1207 5.72708 34.467C5.36816 34.8132 5.36816 35.3669 5.72708 35.7132L9.10231 38.9695L8.09678 39.9388L2.20789 34.2588L8.09678 28.5795C24.9015 30.3808 24.3986 30.3114 24.3986 30.3114C25.1166 30.3808 25.6914 30.8651 25.7634 31.5583C25.8346 32.3895 25.1166 33.1507 24.2548 33.1507L14.9909 32.5963C14.4885 32.5963 14.0575 32.9433 14.0575 33.4276C14.0575 33.9126 14.4164 34.3289 14.9191 34.3289L24.1116 34.7438C25.3324 34.8132 26.4814 34.1901 27.0562 33.1507C27.1274 33.0813 35.3144 25.1164 35.3144 25.047C35.9604 24.4239 37.0381 24.4239 37.6842 25.047C38.4022 25.6708 38.4022 26.7095 37.7561 27.3326ZM24.3267 24.9776C27.0562 24.9776 29.5691 25.7395 30.8619 26.9864L27.3432 30.4495C26.9123 29.3414 25.8346 28.5101 24.5425 28.4407L17.1453 27.6789C18.0791 26.2245 20.6641 24.9776 24.3267 24.9776ZM19.4433 7.939C21.167 8.42401 22.7468 9.87835 23.2497 11.6102C22.3879 11.4021 19.9464 9.67089 19.4433 7.939ZM29.2101 7.939C28.7073 9.67089 27.1993 11.1252 25.4037 11.6102C25.6195 10.779 27.4864 8.42401 29.2101 7.939ZM17.7917 14.5883C20.3051 15.1427 22.6749 17.2896 23.2497 19.8527C20.6641 19.3677 18.3662 17.0821 17.7917 14.5883ZM30.79 14.5883C30.2159 17.0821 27.9173 19.3677 25.3324 19.8527C25.6195 18.6752 28.3483 15.1427 30.79 14.5883ZM34.0936 23.8695L32.1547 25.8089C30.6468 24.4239 28.1332 23.4539 25.2605 23.3158V21.6533C26.9842 21.4452 28.7792 20.5452 30.1439 19.2289C31.7238 17.7052 32.7288 15.6277 32.8008 13.6183C32.8008 13.134 32.3698 12.7184 31.867 12.7184C29.2821 12.7184 26.7684 14.2421 25.2605 16.1815V13.4108C26.6252 13.2034 27.9893 12.5102 29.0662 11.4715C30.359 10.2246 31.149 8.5621 31.2209 6.90028C31.2209 6.41527 30.8619 5.99963 30.2871 5.99963C27.9173 5.99963 25.5476 7.59275 24.3267 9.6015C23.1058 7.59275 20.808 6.06902 18.3662 5.99963C17.8637 5.99963 17.4327 6.41527 17.4327 6.90028C17.5042 8.4934 18.2944 10.2246 19.5872 11.4715C20.6641 12.5102 22.0289 13.2034 23.3936 13.4108V16.1815C21.813 14.2421 19.2997 12.7878 16.7864 12.7184C16.2836 12.7184 15.8526 13.134 15.8526 13.6183C15.9247 15.5584 16.93 17.7052 18.5098 19.2289C19.8743 20.5452 21.5979 21.3765 23.3936 21.6533V23.3158C19.3718 23.5233 16.14 25.1858 15.278 27.4714L7.80966 26.7095C7.52225 26.7095 7.23506 26.7789 7.09153 26.9864L0.26919 33.5664C-0.0897301 33.9126 -0.0897301 34.467 0.26919 34.8132L7.45073 41.7394C7.80966 42.0864 8.38418 42.0864 8.7431 41.7394L10.754 39.8008L26.4094 40.3545C26.6252 40.3545 26.9123 40.2851 27.0562 40.0776L38.977 28.5795C40.341 27.2639 40.341 25.1164 38.977 23.8695C37.6122 22.554 35.4576 22.554 34.0936 23.8695Z" fill="white"/>
<path d="M2.38264 4.72351H6.99981C7.29762 4.72351 7.5212 4.99986 7.44646 5.27554C7.22347 5.8269 7.66982 6.44805 8.34034 6.44805H11.6915C11.9148 6.44805 12.1385 6.65464 12.1385 6.86191C12.1385 7.0685 11.9148 7.27576 11.6915 7.27576H6.10601C5.80828 7.27576 5.58492 7.00009 5.65967 6.72373C5.88265 6.17237 5.43609 5.55122 4.76579 5.55122H2.38264C2.15928 5.55122 1.93599 5.34463 1.93599 5.13736C1.86154 4.86167 2.0849 4.72351 2.38264 4.72351ZM2.38264 7.27576H3.79753C4.02111 8.24099 4.98915 8.99963 6.10601 8.99963H11.6915C12.9576 8.99963 14 8.03441 14 6.86191C14 5.68941 12.9576 4.72351 11.6915 4.72351H9.30829C9.08501 3.75828 8.11675 2.99963 6.99981 2.99963H2.30848C1.04241 2.99963 0 3.96486 0 5.13736C0 6.30985 1.04241 7.27576 2.38264 7.27576Z" fill="white"/>
<path d="M8.45156 19C8.45156 19.1932 8.25806 19.3871 8.06437 19.3871C7.87094 19.3871 7.67744 19.1932 7.67744 19C7.67744 18.8061 7.87094 18.6128 8.06437 18.6128C8.25806 18.6128 8.45156 18.7414 8.45156 19ZM6 19C6 20.0961 6.90332 20.9996 7.99987 20.9996C9.09669 20.9996 10 20.0961 10 19C10 17.9032 9.09669 16.9996 7.99987 16.9996C6.90332 16.9996 6 17.9032 6 19Z" fill="white"/>
<path d="M31.002 1.54779C31.195 1.54779 31.3881 1.74171 31.3881 1.93499C31.3881 2.12891 31.195 2.32218 31.002 2.32218C30.8082 2.32218 30.6151 2.12891 30.6151 1.93499C30.6151 1.74171 30.7436 1.54779 31.002 1.54779ZM31.002 3.99963C32.0972 3.99963 33 3.09659 33 1.99963C33 0.902674 32.0972 -0.000366211 31.002 -0.000366211C29.9054 -0.000366211 29.0033 0.902674 29.0033 1.99963C28.9387 3.03195 29.8415 3.99963 31.002 3.99963Z" fill="white"/>
<path d="M37.5334 13.6665C38.0003 13.6665 38.4003 14.0666 38.4003 14.5334C38.4003 15.0002 38.0003 15.3995 37.5334 15.3995C37.0665 15.3995 36.6664 15.0002 36.6664 14.5334C36.6664 14.0666 37.0665 13.6665 37.5334 13.6665ZM37.5334 16.9996C38.9333 16.9996 40 15.8663 40 14.5334C40 13.1329 38.8666 11.9996 37.5334 11.9996C36.1335 11.9996 35 13.1329 35 14.5334C35 15.8663 36.1335 16.9996 37.5334 16.9996Z" fill="white"/>
<path d="M3.99966 12.9996C3.46111 12.9996 3 13.4611 3 13.9996C3 14.5381 3.46111 14.9996 3.99966 14.9996C4.53829 14.9996 5 14.5381 5 13.9996C5 13.3841 4.53829 12.9996 3.99966 12.9996Z" fill="white"/>
<path d="M12 13.9996C12 14.5381 12.4611 14.9996 13 14.9996C13.5383 14.9996 14 14.5381 14 13.9996C14 13.4611 13.5383 12.9996 13 12.9996C12.4611 13.0767 12 13.4611 12 13.9996Z" fill="white"/>
<path d="M36 9.99963C36.5385 9.99963 37 9.51948 37 8.95917C37 8.39885 36.5385 7.99963 36 7.99963C35.4615 7.99963 35 8.47901 35 8.95917C35.0778 9.51948 35.5385 9.99963 36 9.99963Z" fill="white"/>
<path d="M24 4.99963C24.5385 4.99963 25 4.53799 25 3.99926C25 3.4613 24.5385 2.99963 24 2.99963C23.4622 2.99963 23 3.4613 23 3.99926C23.0778 4.53799 23.5393 4.99963 24 4.99963Z" fill="white"/>
<path d="M16.0002 22.9996C16.5384 22.9996 17 22.5381 17 21.9996C17 21.4611 16.5384 20.9996 16.0002 20.9996C15.4613 20.9996 15 21.4611 15 21.9996C15 22.5381 15.4613 22.9996 16.0002 22.9996Z" fill="white"/>
</svg>
