<svg width="32" height="32" viewBox="0 0 32 32" fill="none" xmlns="http://www.w3.org/2000/svg">
<path d="M30.1071 19.8877L22.0607 27.305H19.1722C18.811 27.305 18.5015 27.612 18.5015 27.9702C18.5015 28.3284 18.811 28.6348 19.1722 28.6348H21.6995V30.2209H17.5729V23.315C17.5729 23.1105 17.4701 22.9568 17.3151 22.8036L16.9539 22.5473C25.1553 15.9997 24.7941 16.3066 24.7941 16.3066C25.1553 15.9997 25.7227 15.9997 26.1355 16.3066C26.6512 16.7161 26.6512 17.4832 26.1867 17.8922L21.3383 22.2916C21.0804 22.5473 21.0804 22.9568 21.2866 23.2125C21.5445 23.4688 21.9573 23.4688 22.2152 23.2638L27.1153 18.8136C27.786 18.1997 28.0438 17.33 27.786 16.5116C27.786 16.4604 27.786 16.9718 27.7343 8.12215C27.7343 7.45698 28.25 6.94553 28.9207 6.94553C29.5914 6.94553 30.1071 7.45698 30.1071 8.12215V19.8877ZM15.613 30.2209V23.6215L15.9223 23.417L16.232 23.6215V30.2209H15.613ZM10.197 28.5841H12.7245C13.0855 28.5841 13.3951 28.2766 13.3951 27.9189C13.3951 27.5607 13.0855 27.2543 12.7245 27.2543H9.83591L1.73787 19.8877V8.12215C1.73787 7.45698 2.25366 6.94553 2.92411 6.94553C3.59476 6.94553 4.11041 7.45698 4.11041 8.12215C4.05904 16.9718 4.05904 16.4091 4.05904 16.5116C3.85261 17.33 4.11041 18.2504 4.72929 18.8136L9.62948 23.2638C9.88763 23.5195 10.3003 23.4688 10.5581 23.2125C10.8159 22.9568 10.7644 22.5473 10.5064 22.2916L5.60642 17.8414C5.1422 17.3812 5.1422 16.6643 5.65799 16.2559C6.07065 15.9484 6.63801 15.9484 6.9991 16.2559C6.9991 16.2559 6.63801 15.9484 14.8392 22.4966L14.5298 22.7523C14.3751 22.8548 14.272 23.0593 14.272 23.2638V30.2209H10.1454L10.197 28.5841ZM28.9207 5.66695C27.5281 5.66695 26.4451 6.79181 26.4451 8.12215L26.4962 14.9768C25.671 14.6186 24.7425 14.7206 24.0206 15.3345L15.9223 21.729L7.87582 15.3345C7.1538 14.7718 6.22515 14.6186 5.4002 14.9768L5.45151 8.12215C5.45151 6.74107 4.31683 5.66695 2.97588 5.66695C1.63452 5.66695 0.5 6.79181 0.5 8.12215V20.1434C0.5 20.2971 0.551367 20.5016 0.706279 20.6036L8.95918 28.1747V30.8343C8.95918 31.1925 9.26855 31.5 9.62948 31.5C10.4033 31.5 21.5961 31.5 22.3702 31.5C22.7309 31.5 23.0404 31.1925 23.0404 30.8343V28.1747L31.2935 20.6036C31.448 20.5016 31.4997 20.2971 31.4997 20.1434V8.12215C31.3963 6.79181 30.2616 5.66695 28.9207 5.66695Z" fill="#001233"/>
<path d="M3.57425 28.0199C3.18846 28.0199 2.85771 27.6935 2.85771 27.3127C2.85771 26.9325 3.18846 26.6056 3.57425 26.6056C3.9601 26.6056 4.29063 26.9325 4.29063 27.3127C4.23553 27.6935 3.905 28.0199 3.57425 28.0199ZM3.57425 25.3003C2.41699 25.3003 1.53516 26.2248 1.53516 27.3672C1.53516 28.5091 2.47208 29.4336 3.57425 29.4336C4.73151 29.4336 5.66845 28.5091 5.66845 27.3672C5.61335 26.2248 4.6762 25.3003 3.57425 25.3003Z" fill="#001233"/>
<path d="M27.8862 28.1839C27.7359 28.1839 27.5861 28.0336 27.5861 27.8839C27.5861 27.7336 27.7359 27.5838 27.8862 27.5838C28.0359 27.5838 28.1862 27.7336 28.1862 27.8839C28.2358 28.0336 28.086 28.1839 27.8862 28.1839ZM27.8862 26.3336C27.0362 26.3336 26.3359 27.0339 26.3359 27.8839C26.3359 28.7339 27.0362 29.4336 27.8862 29.4336C28.7362 29.4336 29.4359 28.7339 29.4359 27.8839C29.4359 27.0339 28.7362 26.3336 27.8862 26.3336Z" fill="#001233"/>
<path d="M23.7492 7.90093C23.8995 7.90093 24.0493 8.0507 24.0493 8.20046C24.0493 8.35072 23.8995 8.50099 23.7492 8.50099C23.5994 8.50099 23.4491 8.35072 23.4491 8.20046C23.4491 8.0507 23.5994 7.90093 23.7492 7.90093ZM23.7492 9.80078C24.5993 9.80078 25.2992 9.10104 25.2992 8.25105C25.2992 7.40055 24.5993 6.70081 23.7492 6.70081C22.8991 6.70081 22.1992 7.35046 22.1992 8.20046C22.1992 9.05046 22.8991 9.80078 23.7492 9.80078Z" fill="#001233"/>
<path d="M9.82474 4.93977C10.2104 4.93977 10.541 5.27439 10.541 5.6655C10.541 6.05661 10.2104 6.39177 9.82474 6.39177C9.43891 6.39177 9.10823 6.05661 9.10823 5.6655C9.10823 5.27439 9.43891 4.93977 9.82474 4.93977ZM9.82474 7.73242C10.982 7.73242 11.8638 6.78289 11.8638 5.6655C11.8638 4.54867 10.9266 3.59913 9.82474 3.59913C8.66753 3.59913 7.73047 4.54867 7.73047 5.6655C7.73047 6.78289 8.66753 7.73242 9.82474 7.73242Z" fill="#001233"/>
<path d="M13.3559 14.792C13.9537 14.8436 14.3023 14.8957 14.6013 15.1558C15.249 15.8842 15.548 16.8201 15.4984 17.8086C13.6549 17.8607 12.21 16.5085 12.1102 14.5836C12.5586 14.7394 12.9573 14.7394 13.3559 14.792ZM17.4415 15.1558C17.7405 14.8436 18.0894 14.792 18.6868 14.7394C19.0357 14.6873 19.4844 14.6873 19.9327 14.532C19.8828 16.4043 18.5376 17.757 16.6938 17.8086C16.6938 17.757 16.6938 17.7044 16.6938 17.5486C16.6938 17.2881 16.6938 17.0286 16.6444 16.7685C16.7936 16.1443 17.0427 15.5716 17.4415 15.1558ZM11.3129 12.9192C11.1137 13.0234 10.9643 13.1793 10.9143 13.4393C10.3665 16.7685 12.7578 19.4735 15.9967 19.0572C19.2349 19.4735 21.6766 16.7685 21.0787 13.4393C20.9789 12.9708 20.4807 12.7629 20.1318 13.0234C19.6337 13.3872 19.1356 13.4393 18.5875 13.4914C17.9396 13.5435 17.1924 13.6472 16.5446 14.3236C16.3454 14.532 16.1458 14.792 15.9967 15.0515C15.847 14.792 15.6476 14.532 15.4484 14.3236C14.8506 13.6472 14.1031 13.5951 13.4059 13.5435C12.8576 13.4914 12.3592 13.4914 11.911 13.075C11.7615 12.9192 11.5123 12.8671 11.3129 12.9192Z" fill="#001233"/>
<path d="M17.1547 4.27899L16.7115 6.0484C16.6128 6.47772 16.9085 6.90703 17.3028 6.90703H19.3224L16.9578 10.2325L17.4015 8.46205C17.4997 8.03326 17.2041 7.60395 16.8102 7.60395H14.7901L17.1547 4.27899ZM13.5091 8.89137H15.9727L14.8886 13.075C14.7901 13.5043 15.0858 13.9336 15.48 13.9336C15.6771 13.9336 15.8246 13.8261 15.9727 13.6655L21.0469 6.63891C21.1949 6.42398 21.1949 6.1564 21.0962 5.94147C20.9975 5.72708 20.8006 5.56588 20.5543 5.56588H18.091L19.1748 1.3823C19.2735 1.06044 19.1255 0.73858 18.8792 0.577918C18.6329 0.416725 18.2879 0.52472 18.1404 0.738582L13.0167 7.81887C12.8685 8.03327 12.8685 8.30192 12.9672 8.51631C13.0657 8.78443 13.2629 8.89137 13.5091 8.89137Z" fill="#001233"/>
<path d="M6.15984 4.63281C6.44933 4.63281 6.69738 4.39438 6.69738 4.11654C6.69738 3.83831 6.44933 3.59949 6.15984 3.59949C5.87063 3.59949 5.66406 3.83831 5.66406 4.11654C5.66406 4.39438 5.91195 4.63281 6.15984 4.63281Z" fill="#001233"/>
<path d="M8.24711 9.80066C8.53249 9.80066 8.76379 10.0321 8.76379 10.3175C8.76379 10.6026 8.53249 10.834 8.24711 10.834C7.96192 10.834 7.73047 10.6026 7.73047 10.3175C7.73047 10.0321 7.96192 9.80066 8.24711 9.80066Z" fill="#001233"/>
<path d="M23.2305 12.4042C23.2305 12.6937 23.4686 12.9004 23.7469 12.9004C24.0253 12.9004 24.2638 12.6523 24.2638 12.4042C24.2638 12.1147 24.0253 11.8671 23.7469 11.8671C23.4686 11.9081 23.2305 12.1147 23.2305 12.4042Z" fill="#001233"/>
<path d="M23.7469 3.59961C24.0253 3.59961 24.2638 3.3611 24.2638 3.08315C24.2638 2.80481 24.0253 2.56629 23.7469 2.56629C23.4686 2.56629 23.2305 2.80481 23.2305 3.08315C23.2305 3.3611 23.4686 3.59961 23.7469 3.59961Z" fill="#001233"/>
<path d="M24.7864 28.4003C24.5081 28.4003 24.2695 28.6384 24.2695 28.9167C24.2695 29.1947 24.5081 29.4336 24.7864 29.4336C25.0643 29.4336 25.3029 29.1947 25.3029 28.9167C25.3029 28.599 25.0643 28.4003 24.7864 28.4003Z" fill="#001233"/>
<path d="M7.21586 29.4335C6.93745 29.4335 6.69922 29.6815 6.69922 29.9708C6.69922 30.2598 6.93745 30.4668 7.21586 30.4668C7.49399 30.4668 7.73254 30.2188 7.73254 29.9708C7.6928 29.6815 7.45425 29.4335 7.21586 29.4335Z" fill="#001233"/>
</svg>
