<svg width="42" height="42" viewBox="0 0 42 42" fill="none" xmlns="http://www.w3.org/2000/svg">
<path d="M21.8917 30.5897V25.9842L23.9502 23.922C25.7351 22.1347 25.7351 19.2477 23.9502 17.3917C21.4115 14.8483 21.6172 15.0545 21.4799 14.9858L21.4115 14.917C21.4115 14.917 21.3429 14.917 21.3429 14.8483H21.2742H21.2054H21.1367H21.0681H20.9997H20.9311H20.8624H20.7935C20.7935 14.8483 20.7249 14.8483 20.7249 14.917L20.6565 14.9858C20.5192 15.0545 20.7249 14.917 18.1859 17.3917C16.4016 19.1789 16.4016 22.1347 18.1859 23.922L20.2447 25.9842V30.5897C15.3723 30.1773 11.529 25.9842 11.529 20.9661C11.529 15.6732 15.8525 11.3426 21.1367 11.3426C26.421 11.3426 30.7445 15.6732 30.7445 20.9661C30.6075 25.9842 26.7643 30.1085 21.8917 30.5897ZM20.1077 23.5095L19.284 22.6846C18.1859 21.5848 18.1859 19.7976 19.284 18.629L20.1077 17.8041V23.5095ZM22.715 18.629C23.8132 19.7288 23.8132 21.5161 22.715 22.6846L21.8917 23.5095V17.8041L22.715 18.629ZM20.9997 9.55535C14.7546 9.55535 9.60742 14.6421 9.60742 20.9661C9.60742 27.2215 14.686 32.377 20.9997 32.377C27.2446 32.377 32.3917 27.2902 32.3917 20.9661C32.3917 14.7108 27.2446 9.55535 20.9997 9.55535Z" fill="#001233"/>
<path d="M40.2156 22.6841H36.5101C36.0983 22.6841 35.6865 22.9591 35.618 23.4403C35.2747 25.6399 34.3826 27.7709 33.078 29.5581C32.8039 29.9018 32.8724 30.383 33.1472 30.6579L35.755 33.27L33.2842 35.7447L30.6764 33.1326C30.4023 32.8576 29.9213 32.7889 29.5787 33.0638C27.7938 34.3699 25.667 35.2635 23.4703 35.6072C23.0589 35.7447 22.7154 36.0884 22.7154 36.5008V40.2128H19.2844V36.5008C19.2844 36.0884 19.0099 35.6759 18.5294 35.6072C16.3333 35.2635 14.2059 34.3699 12.4213 33.0638C12.0784 32.7889 11.5979 32.8576 11.3235 33.1326L8.71578 35.7447L6.24513 33.27L8.85282 30.6579C9.1273 30.383 9.19596 29.9018 8.9214 29.5581C7.61763 27.7709 6.72558 25.6399 6.38244 23.4403C6.24513 23.0278 5.90199 22.6841 5.49013 22.6841H1.78402V19.2471H5.49013C5.90199 19.2471 6.31379 18.9034 6.38244 18.491C6.72558 16.2913 7.61763 14.1604 8.9214 12.3732C9.19596 12.0295 9.1273 11.5483 8.85282 11.2733L6.24513 8.66121L8.71578 6.18658L11.3235 8.79869C11.5979 9.07365 12.0784 9.14239 12.4213 8.86743C14.2059 7.56137 16.3333 6.66776 18.5294 6.32406C18.9413 6.25532 19.2844 5.91162 19.2844 5.43044V1.71849H22.7154V5.43044C22.7154 5.84288 22.9903 6.25532 23.4703 6.32406C25.667 6.66776 27.7938 7.56137 29.5787 8.86743C29.9213 9.14239 30.4023 9.07365 30.6764 8.79869L33.2842 6.18658L35.755 8.66121L33.1472 11.2733C32.8724 11.5483 32.8039 12.0295 33.078 12.3732C34.3826 14.1604 35.2747 16.2913 35.618 18.491C35.6865 18.9034 36.0298 19.2471 36.5101 19.2471H40.2156V22.6841ZM41.1077 17.4599H37.2645C36.8527 15.5352 36.0983 13.6105 34.9999 11.9607L37.7448 9.21113C38.0881 8.86743 38.0881 8.31751 37.7448 7.97381L34.0393 4.26186C33.696 3.91817 33.1472 3.91817 32.8039 4.26186L30.0591 7.01146C28.4119 5.91162 26.4906 5.15548 24.5687 4.74304V0.893616C24.5687 0.412437 24.1569 0 23.6765 0H18.4606C17.9804 0 17.5685 0.412437 17.5685 0.893616V4.74304C15.647 5.15548 13.7254 5.91162 12.0784 7.01146L9.33327 4.26186C8.99033 3.91817 8.44095 3.91817 8.09808 4.26186L4.39225 7.97381C4.04904 8.31751 4.04904 8.86743 4.39225 9.21113L7.13718 11.9607C6.03923 13.6105 5.28423 15.5352 4.87243 17.4599H1.02929C0.548836 17.4599 0.137314 17.8723 0.137314 18.3535V23.5777C0.137314 24.0589 0.548836 24.4714 1.02929 24.4714H4.87243C5.28423 26.3961 6.03923 28.3208 7.13718 29.9705L4.39225 32.7201C4.04904 33.0638 4.04904 33.6137 4.39225 33.9574L8.09808 37.6694C8.44095 38.0131 8.99033 38.0131 9.33327 37.6694L12.0784 34.9198C13.7254 36.0196 15.647 36.7758 17.5685 37.1882V40.2128H0.892048C0.411868 40.2128 0 40.6252 0 41.1064C0 41.5876 0.411868 42 0.892048 42C2.12751 42 39.5297 42 41.1077 42C41.588 42 41.9998 41.5876 41.9998 41.1064C41.9998 40.6252 41.588 40.2128 41.1077 40.2128H24.5001V37.1882C26.4214 36.7758 28.3427 36.0196 29.9905 34.9198L32.7354 37.6694C33.078 38.0131 33.6275 38.0131 33.9708 37.6694L37.6763 33.9574C38.0196 33.6137 38.0196 33.0638 37.6763 32.7201L34.9314 29.9705C36.0298 28.3208 36.7842 26.3961 37.196 24.4714H41.0392C41.5195 24.4714 41.9313 24.0589 41.9313 23.5777V18.3535C41.9998 17.8723 41.588 17.4599 41.1077 17.4599Z" fill="#001233"/>
<path d="M2.60742 0.824474H4.32333V2.54297H2.60742V0.824474Z" fill="#001233"/>
<path d="M2.60742 4.33229H4.32333V6.05078H2.60742V4.33229Z" fill="#001233"/>
<path d="M4.39258 2.54518H6.10822V4.26367H4.39258V2.54518Z" fill="#001233"/>
<path d="M0.891602 2.54518H2.60724V4.26367H0.891602V2.54518Z" fill="#001233"/>
<path d="M37.6074 0.894787H39.3231V2.61328H37.6074V0.894787Z" fill="#001233"/>
<path d="M37.6074 4.40065H39.3231V6.11914H37.6074V4.40065Z" fill="#001233"/>
<path d="M39.3916 2.6819H41.1073V4.40039H39.3916V2.6819Z" fill="#001233"/>
<path d="M35.8916 2.6819H37.6073V4.40039H35.8916V2.6819Z" fill="#001233"/>
<path d="M39.392 37.6018C38.9117 37.6018 38.4999 37.1894 38.4999 36.7082C38.4999 36.227 38.9117 35.8146 39.392 35.8146C39.873 35.8146 40.2848 36.227 40.2848 36.7082C40.2156 37.1894 39.873 37.6018 39.392 37.6018ZM39.392 34.0961C37.951 34.0961 36.7842 35.2647 36.7842 36.7082C36.7842 38.1517 37.951 39.3203 39.392 39.3203C40.8336 39.3203 41.9998 38.1517 41.9998 36.7082C41.9998 35.2647 40.8336 34.0961 39.392 34.0961Z" fill="#001233"/>
<path d="M2.60769 27.9767C3.08841 27.9767 3.49993 28.3891 3.49993 28.8703C3.49993 29.3515 3.08841 29.7639 2.60769 29.7639C2.12751 29.7639 1.71564 29.3515 1.71564 28.8703C1.78402 28.3891 2.12751 27.9767 2.60769 27.9767ZM2.60769 31.4824C4.04904 31.4824 5.21557 30.3138 5.21557 28.8703C5.21557 27.4268 4.04904 26.2582 2.60769 26.2582C1.16687 26.2582 0 27.4268 0 28.8703C0 30.3138 1.16687 31.4824 2.60769 31.4824Z" fill="#001233"/>
</svg>
