<svg width="42" height="42" viewBox="0 0 42 42" fill="none" xmlns="http://www.w3.org/2000/svg">
<path d="M30.9902 34.4098H21.3648V32.3857C24.2085 30.2167 25.8126 27.1085 25.8857 23.783C25.8857 20.3134 24.1355 16.9156 21.0733 14.7473C20.7817 14.5301 20.344 14.5301 19.979 14.7473C16.9898 16.9156 15.1671 20.241 15.1671 23.783C15.1671 27.1085 16.7709 30.2892 19.542 32.4581V34.4822H10.0627V33.4698H14.5837C15.0939 33.4698 15.5315 33.036 15.5315 32.5298C15.5315 32.0243 15.0939 31.5905 14.5837 31.5905H10.0627V12.7225H14.5837C15.0939 12.7225 15.5315 12.2887 15.5315 11.7832C15.5315 11.277 15.0939 10.8433 14.5837 10.8433H10.0627V9.90328H14.5837C15.0939 9.90328 15.5315 9.46949 15.5315 8.964C15.5315 8.45779 15.0939 8.02402 14.5837 8.02402H10.0627V4.40958C11.8857 4.40958 28.8025 4.40958 30.9902 4.40958V8.02402H27.3437C26.8338 8.02402 26.3963 8.45779 26.3963 8.964C26.3963 9.46949 26.8338 9.90328 27.3437 9.90328H30.9902V10.8433H27.3437C26.8338 10.8433 26.3963 11.277 26.3963 11.7832C26.3963 12.2887 26.8338 12.7225 27.3437 12.7225H30.9902V31.6629H27.3437C26.8338 31.6629 26.3963 32.0967 26.3963 32.6022C26.3963 33.1084 26.8338 33.5422 27.3437 33.5422H30.9902V34.4098ZM21.3648 22.3376V20.1686C21.3648 19.6624 20.9275 19.2294 20.4167 19.2294C19.9064 19.2294 19.4689 19.6624 19.4689 20.1686V29.9278C17.7919 28.1933 16.9166 25.952 16.9166 23.7113C16.9166 20.9638 18.2295 18.3618 20.4167 16.5542C21.9477 17.8556 23.042 19.4459 23.5526 21.2528L21.3648 22.3376ZM21.3648 27.9761L23.3334 26.9637C22.8959 28.0485 22.1669 29.0602 21.3648 29.9278V27.9761ZM23.9901 24.7231C23.9163 24.7231 23.844 24.7955 23.771 24.7955L21.3648 25.952V24.3617L23.9901 23.0603C24.1355 23.5665 24.0632 24.1444 23.9901 24.7231ZM30.9902 39.8311H10.0627V36.2166H30.9902V39.8311ZM23.771 1.87927H27.4168V2.81925H23.771V1.87927ZM34.7083 33.4698C35.2189 33.4698 35.6565 33.036 35.6565 32.5298C35.6565 32.0243 35.2189 31.5905 34.7083 31.5905H32.8858V12.7225H34.7083C35.2189 12.7225 35.6565 12.2887 35.6565 11.7832C35.6565 11.277 35.2189 10.8433 34.7083 10.8433H32.8858V9.90328H34.7083C35.2189 9.90328 35.6565 9.46949 35.6565 8.964C35.6565 8.45779 35.2189 8.02402 34.7083 8.02402H32.8858V4.40958H33.7609C34.2708 4.40958 34.7083 3.9758 34.7083 3.4696C34.7083 2.96411 34.2708 2.53032 33.7609 2.53032C31.7923 2.53032 31.3547 2.53032 29.24 2.53032V0.939285C29.24 0.433797 28.8025 1.98e-06 28.2919 1.98e-06H22.8228C22.313 1.98e-06 21.8754 0.433797 21.8754 0.939285V2.74685C18.3752 2.74685 10.1356 2.74685 7.29156 2.74685C6.78133 2.74685 6.34399 3.18063 6.34399 3.68684C6.34399 4.19232 6.78133 4.62612 7.29156 4.62612H8.23993V8.24052H7.29156C6.78133 8.24052 6.34399 8.67433 6.34399 9.18054C6.34399 9.68674 6.78133 10.1205 7.29156 10.1205H8.23993V11.0605H7.29156C6.78133 11.0605 6.34399 11.4943 6.34399 11.9998C6.34399 12.506 6.78133 12.9398 7.29156 12.9398H8.23993V31.8795H7.29156C6.78133 31.8795 6.34399 32.3133 6.34399 32.8195C6.34399 33.3257 6.78133 33.7594 7.29156 33.7594H8.23993V34.6987H7.29156C6.78133 34.6987 6.34399 35.1325 6.34399 35.6387C6.34399 36.1449 6.78133 36.5787 7.29156 36.5787H8.23993V40.1931H7.29156C6.78133 40.1931 6.34399 40.6269 6.34399 41.0607C6.34399 41.5662 6.78133 42 7.29156 42C9.26033 42 32.7397 42 33.6878 42C34.1984 42 34.636 41.5662 34.636 41.0607C34.636 40.5545 34.1984 40.1931 33.6878 40.1931H32.7397V36.5787H34.5629C35.0735 36.5787 35.5104 36.1449 35.5104 35.6387C35.5104 35.1325 35.0735 34.6987 34.5629 34.6987H32.7397V33.4698H34.7083Z" fill="#06C15A"/>
<path d="M3.71907 19.0117C4.22959 19.0117 4.59403 18.5779 4.59403 18.1441C4.59403 17.6379 4.15669 17.2041 3.71907 17.2041C3.28144 17.2041 2.771 17.6379 2.771 18.1441C2.771 18.6503 3.20862 19.0117 3.71907 19.0117Z" fill="#06C15A"/>
<path d="M39.2292 8.16895C39.7398 8.16895 40.1773 7.73519 40.1773 7.3014C40.1773 6.79519 39.7398 6.36138 39.2292 6.36138C38.7193 6.36138 38.2817 6.79519 38.2817 7.3014C38.3541 7.73519 38.7193 8.16895 39.2292 8.16895Z" fill="#06C15A"/>
<path d="M39.2292 25.3729C38.7193 25.3729 38.2817 25.8067 38.2817 26.3129C38.2817 26.8191 38.7193 27.2529 39.2292 27.2529C39.7398 27.2529 40.1773 26.8191 40.1773 26.3129C40.1773 25.7343 39.7398 25.3729 39.2292 25.3729Z" fill="#06C15A"/>
<path d="M2.77086 34.4091C2.26062 34.4091 1.823 34.8429 1.823 35.3491C1.823 35.8553 2.26062 36.2891 2.77086 36.2891C3.28131 36.2891 3.71893 35.8553 3.71893 35.3491C3.71893 34.7705 3.28131 34.4091 2.77086 34.4091Z" fill="#06C15A"/>
<path d="M39.2293 35.2775C39.2293 34.7713 38.7918 34.3375 38.2819 34.3375C37.7713 34.3375 37.3337 34.7713 37.3337 35.2775C37.3337 35.7837 37.7713 36.2168 38.2819 36.2168C38.7918 36.2168 39.2293 35.7837 39.2293 35.2775Z" fill="#06C15A"/>
<path d="M39.2292 38.8914C38.7193 38.8914 38.2817 39.3252 38.2817 39.8307C38.2817 40.3376 38.7193 40.6982 39.2292 40.6982C39.7398 40.6982 40.1773 40.2644 40.1773 39.8307C40.1773 39.3252 39.7398 38.8914 39.2292 38.8914Z" fill="#06C15A"/>
<path d="M2.7709 28.0485C2.26066 28.0485 1.82304 27.6147 1.82304 27.1085C1.82304 26.6023 2.26066 26.1685 2.7709 26.1685C3.28135 26.1685 3.71897 26.6023 3.71897 27.1085C3.71897 27.6147 3.28135 28.0485 2.7709 28.0485ZM2.7709 24.4333C1.23968 24.4333 0 25.663 0 27.1809C0 28.6988 1.23968 29.8553 2.7709 29.8553C4.30211 29.8553 5.46881 28.6271 5.46881 27.1809C5.46881 25.663 4.30211 24.4333 2.7709 24.4333Z" fill="#06C15A"/>
<path d="M3.20861 5.49338C2.98991 5.49338 2.77099 5.27683 2.77099 5.05958C2.77099 4.84304 2.98991 4.6258 3.20861 4.6258C3.42753 4.6258 3.64587 4.84304 3.64587 5.05958C3.64587 5.27683 3.50014 5.49338 3.20861 5.49338ZM3.20861 2.74653C1.96893 2.74653 0.948242 3.75823 0.948242 4.98718C0.948242 6.21684 1.96893 7.22852 3.20861 7.22852C4.44822 7.22852 5.4689 6.21684 5.4689 4.98718C5.4689 3.75823 4.44822 2.74653 3.20861 2.74653Z" fill="#06C15A"/>
<path d="M38.7917 19.9512C38.0627 19.9512 37.4068 19.3733 37.4068 18.5782C37.4068 17.783 37.9897 17.2044 38.7917 17.2044C39.5215 17.2044 40.1774 17.783 40.1774 18.5782C40.1774 19.3733 39.5215 19.9512 38.7917 19.9512ZM38.7917 15.3975C37.0422 15.3975 35.5835 16.843 35.5835 18.5782C35.5835 20.3133 37.0422 21.7588 38.7917 21.7588C40.5419 21.7588 42 20.3133 42 18.5782C41.9276 16.843 40.5419 15.3975 38.7917 15.3975Z" fill="#06C15A"/>
</svg>
