<svg width="42" height="42" viewBox="0 0 42 42" fill="none" xmlns="http://www.w3.org/2000/svg">
<path d="M33.8802 18.375V15.6036H37.6617L38.804 18.302C37.7332 18.375 34.9503 18.375 33.8802 18.375ZM34.8081 22.8959H24.9607V21.9478C24.9607 21.4379 24.5325 20.9996 24.0328 20.9996H18.6816C18.182 20.9996 17.7538 21.4379 17.7538 21.9478V22.8959H8.04934V20.1245H34.8081V22.8959ZM26.7449 40.2496V37.479H34.7366V40.2496H26.7449ZM17.8253 40.2496V29.3124H24.9607V40.2496H17.8253ZM8.04934 37.479H16.1126V40.2496H8.04934V37.479ZM18.7531 26.5417H24.1043C24.604 26.5417 25.0321 26.1041 25.0321 25.5943V24.6454H34.8081V35.5833H26.7449V28.2912C26.7449 27.7813 26.3167 27.3437 25.817 27.3437H16.9689C16.4693 27.3437 16.1126 27.7813 16.1126 28.2912V35.5833H8.04934V24.6454H17.8253V25.5943C17.8253 26.1041 18.2535 26.5417 18.7531 26.5417ZM23.1772 24.7192H19.6095V22.8959H23.1772V24.7192ZM9.54832 5.61441C10.4754 5.61441 33.4521 5.61441 33.595 5.61441L35.0933 9.2602H16.9689C16.4693 9.2602 16.1126 9.69775 16.1126 10.2083V18.4481C15.0425 18.4481 5.90915 18.4481 4.3394 18.4481L9.54832 5.61441ZM26.7449 1.96862H28.5283V3.79116H26.7449V1.96862ZM33.8802 11.0827H35.8067L36.9483 13.8541H33.8802V11.0827ZM28.5283 13.7811V11.0104H32.096V13.7811H28.5283ZM21.393 13.7811H17.8253V11.0104H21.393V13.7811ZM26.7449 11.0827V13.8541H23.1772V11.0827H26.7449ZM17.8253 18.375V15.6036H21.393V18.302H17.8253V18.375ZM23.1772 18.375V15.6036H26.7449V18.302H23.1772V18.375ZM28.5283 18.375V15.6036H32.096V18.302H28.5283V18.375ZM35.0218 4.30175C34.8788 3.93724 34.5222 3.71883 34.1655 3.71883H30.3126V1.89558H31.2404C31.7393 1.89558 32.1675 1.45803 32.1675 0.948151C32.1675 0.437553 31.7393 0 31.2404 0C29.028 0 26.1737 0 24.1043 0C23.6046 0 23.1772 0.437553 23.1772 0.948151C23.1772 1.45803 23.6046 1.89558 24.1043 1.89558H25.0321V3.71883H8.90569C8.54899 3.71883 8.1923 3.93724 8.04934 4.30175L2.05554 18.8849C1.8418 19.4685 2.26997 20.1245 2.91189 20.1245H6.19437V40.1775H4.3394C3.83974 40.1775 3.41155 40.6143 3.41155 41.0525C3.41155 41.5624 3.83974 42 4.3394 42C6.19437 42 36.3771 42 38.3043 42C38.804 42 39.2321 41.5624 39.2321 41.0525C39.2321 40.542 38.804 40.1775 38.3043 40.1775H36.5201V20.1983H40.0885C40.7304 20.1983 41.1586 19.5416 40.9441 18.9587C37.5194 10.5005 38.4473 12.6876 35.0218 4.30175Z" fill="white"/>
<path d="M2 33.0618C1.80608 33.0618 1.61281 32.8207 1.61281 32.5791C1.61281 32.3371 1.80608 32.0949 2 32.0949C2.19328 32.0949 2.38656 32.3371 2.38656 32.5791C2.38656 32.8207 2.19328 33.0618 2 33.0618ZM4 32.4976C4 31.1276 3.09696 30 2 30C0.90304 30 0 31.1276 0 32.4976C0 33.8676 0.90304 34.9962 2 34.9962C3.09696 35.0768 4 33.8676 4 32.4976Z" fill="white"/>
<path d="M4.00131 2.93569C4.19504 2.93569 4.38812 3.17725 4.38812 3.41961C4.38812 3.66117 4.19504 3.90354 4.00131 3.90354C3.80822 3.90354 3.61512 3.66117 3.61512 3.41961C3.54991 3.17725 3.74364 2.93569 4.00131 2.93569ZM4.00131 6C5.0972 6 6 4.87138 6 3.5004C6 2.12942 5.0972 1 4.00131 1C2.90542 1 2.00326 2.12942 2.00326 3.5004C1.93868 4.79059 2.84148 6 4.00131 6Z" fill="white"/>
<path d="M39.5323 4.33312C39.0657 4.33312 38.666 3.93374 38.666 3.46694C38.666 3.00013 39.0657 2.6001 39.5323 2.6001C39.9982 2.6001 40.398 3.00013 40.398 3.46694C40.398 3.93374 39.9982 4.33312 39.5323 4.33312ZM39.5323 1C38.1327 1 37 2.13329 37 3.53306C37 4.93348 38.1327 6 39.5323 6C40.9313 6 41.9972 4.8667 41.9972 3.53306C42.0639 2.06717 40.9313 1 39.5323 1Z" fill="white"/>
<path d="M10.9592 3C11.52 3 12 2.53834 12 1.99962C12 1.46089 11.52 1 10.9592 1C10.3998 1 10 1.46089 10 1.99962C10 2.53834 10.3998 3 10.9592 3Z" fill="white"/>
<path d="M39.0004 26C38.4616 26 38 26.4617 38 27.0004C38 27.5383 38.4616 28 39.0004 28C39.5383 28 40 27.5383 40 27.0004C40 26.4617 39.5383 26 39.0004 26Z" fill="white"/>
<path d="M40 7.95993C40 7.40063 39.5383 7 39.0004 7C38.4616 7 38 7.48076 38 7.95993C38 8.52002 38.4616 9 39.0004 9C39.5383 9 40 8.52002 40 7.95993Z" fill="white"/>
<path d="M2.00039 10C2.53912 10 3 9.53835 3 8.99962C3 8.4609 2.53912 8 2.00039 8C1.46166 8 1 8.4609 1 8.99962C1.07707 9.53835 1.46166 10 2.00039 10Z" fill="white"/>
<path d="M5 25.9996C5 25.4609 4.52004 25 4.04087 25C3.5609 25 3 25.4609 3 25.9996C3 26.5376 3.47998 27 4.04087 27C4.52004 26.9229 5 26.4613 5 25.9996Z" fill="white"/>
</svg>
