<svg width="70" height="70" viewBox="0 0 70 70" fill="none" xmlns="http://www.w3.org/2000/svg">
<path d="M44.3819 17.9846C44.3819 18.8186 45.1036 19.5332 45.9446 19.5332C46.7868 19.5332 47.3881 18.8186 47.3881 17.9846C47.3881 10.9573 41.6154 5.59791 34.88 5.71722C28.0241 5.71722 22.4912 11.3152 22.4912 17.9846C22.4912 18.8186 23.2129 19.5332 23.9347 19.5332C24.7769 19.5332 25.377 18.8185 25.4986 18.1039C25.4986 12.9819 29.7074 8.81329 34.88 8.81329C40.1719 8.69516 44.3819 12.8638 44.3819 17.9846Z" fill="#001233"/>
<path d="M3.12672 36.4443C3.12672 32.2768 5.17025 28.2263 8.53914 25.4881C12.0273 28.3456 13.9516 32.395 13.9516 36.5636C13.9516 40.3743 12.2671 43.9465 9.38016 46.687C9.01989 45.0203 8.77891 43.1137 8.77891 41.3276V37.3976C8.77891 36.5636 8.05719 35.849 7.21497 35.849C6.37394 35.849 5.77269 36.5636 5.77269 37.3976V41.3276C5.77269 42.5183 5.89198 43.709 6.01366 44.8998C4.08823 42.399 3.00623 39.4223 3.12672 36.4443ZM32.354 44.7816H37.5255V46.3291H32.354V44.7816ZM25.6186 29.2989C22.1292 26.4402 20.0845 22.2716 20.0845 17.8655C20.0845 9.7668 26.8199 3.09742 34.9988 3.09742C43.1777 3.09742 49.9131 9.6475 49.9131 17.8655C49.9131 22.2716 47.8684 26.4402 44.3814 29.2989C42.2162 31.0849 40.5317 34.181 40.1714 37.3976H38.728V25.4881C38.728 24.6542 38.0062 23.9395 37.164 23.9395C36.3218 23.9395 35.6012 24.6542 35.6012 25.4881V37.3976H34.0373V25.4881C34.0373 24.6542 33.3155 23.9395 32.4733 23.9395C31.6323 23.9395 31.0298 24.6542 31.0298 25.4881V37.3976H29.5864C29.4671 34.181 27.9031 31.0849 25.6186 29.2989ZM29.8274 41.8037V40.255H40.1714V41.8037C36.3218 41.8037 33.6758 41.8037 29.8274 41.8037ZM56.0472 36.4443C56.0472 32.2768 58.0919 28.2263 61.4596 25.4881C64.9478 28.3456 66.8721 32.395 66.8721 36.5636C66.8721 39.6597 65.7901 42.5183 63.7453 45.0202C63.8658 43.8284 63.9851 42.5183 63.9851 41.3276V37.3976C63.9851 36.5636 63.2646 35.849 62.4224 35.849C61.5801 35.849 60.8584 36.5636 60.8584 37.3976V41.3276C60.8584 43.1137 60.6174 44.8998 60.2571 46.687C57.6112 43.8284 56.0472 40.255 56.0472 36.4443ZM62.6622 50.2591C67.2335 46.8051 70 41.923 70 36.5636C70 31.2042 67.2335 25.8449 62.4224 22.3909C61.9404 22.0341 61.2187 22.0341 60.6174 22.3909C55.9267 25.7256 53.041 30.9656 53.041 36.4443C53.041 41.5651 55.3255 46.3291 59.5354 49.7831C56.1677 59.1918 47.5081 66.0986 37.164 67.0519L38.9689 65.2658C39.6907 64.5511 39.4497 63.3604 38.6075 62.8844L35.2398 61.2177L38.6075 59.5485C39.0894 59.3111 39.4497 58.835 39.4497 58.2385C39.4497 57.6432 39.0894 57.1671 38.6075 56.9297L34.518 54.7845L36.082 53.2371C36.3218 52.9996 36.5628 52.5224 36.5628 52.1657V49.1877H39.2087C40.0509 49.1877 40.7727 48.4742 40.7727 47.7584V44.7816H41.6149C42.4559 44.7816 43.1777 44.067 43.1777 43.233C43.1777 42.0423 43.1777 39.6597 43.1777 38.5883C43.1777 35.849 44.5007 32.9903 46.3056 31.4429C50.5143 28.1082 52.9205 22.9863 52.9205 17.7462C52.9205 7.86143 44.8621 -0.117987 34.8795 0.00131965C25.1367 0.119445 17.0783 7.98074 17.0783 17.7462C17.0783 23.1056 19.4845 28.1082 23.6932 31.5622C25.4981 32.9903 26.8199 35.849 26.8199 38.5883C26.8199 39.6597 26.8199 41.2083 26.8199 43.233C26.8199 44.067 27.5417 44.7816 28.3839 44.7816H29.4671V47.7584C29.4671 48.5924 30.1888 49.1877 30.9105 49.1877H33.5553V51.5703L31.0298 54.0711C30.3081 54.7845 30.5491 55.9764 31.3913 56.4525L34.759 58.1204L31.3913 59.7883C30.9105 60.0258 30.5491 60.5018 30.5491 61.0972C30.5491 61.6925 30.9105 62.1697 31.3913 62.4072L35.4807 64.4319L32.9553 66.9326C22.3702 66.0986 13.5901 59.1918 10.2224 49.6638C14.4323 46.2098 16.9578 41.4469 16.9578 36.4443C16.9578 31.0849 14.1913 25.7256 9.38016 22.2716C8.8994 21.9148 8.17768 21.9148 7.57643 22.2716C2.88575 25.6063 0 30.8475 0 36.325C0 41.6844 2.52548 46.687 7.09567 50.141C10.7032 61.0972 20.8063 69.1959 32.9553 69.9105C33.1951 70.0298 33.436 70.0298 33.6758 69.9105C34.0373 69.9105 34.3975 69.9105 34.8795 69.9105C47.8683 70.1491 58.8137 61.813 62.6622 50.2591Z" fill="#001233"/>
<path d="M5.65251 12.0286C6.01397 12.0286 6.37423 12.3853 6.37423 12.742C6.37423 13.1 6.01397 13.4567 5.65251 13.4567C5.29224 13.4567 4.93077 13.1 4.93077 12.742C4.93077 12.3853 5.29224 12.0286 5.65251 12.0286ZM5.65251 16.554C7.69723 16.554 9.38047 14.886 9.38047 12.8625C9.38047 10.8378 7.69723 9.16991 5.65251 9.16991C3.60779 9.16991 1.92334 10.7185 1.92334 12.8625C1.92334 14.886 3.60779 16.554 5.65251 16.554Z" fill="#001233"/>
<path d="M64.3459 61.2173C63.9844 61.2173 63.6241 60.8593 63.6241 60.5014C63.6241 60.1435 63.9856 59.7879 64.3459 59.7879C64.7073 59.7879 65.0676 60.1435 65.0676 60.5014C65.0676 60.8593 64.7073 61.2173 64.3459 61.2173ZM64.3459 56.6907C62.3011 56.6907 60.6167 58.3586 60.6167 60.3833C60.6167 62.4068 62.3011 64.0747 64.3459 64.0747C66.3906 64.0747 68.0738 62.4068 68.0738 60.3833C68.0738 58.3586 66.3906 56.6907 64.3459 56.6907Z" fill="#001233"/>
<path d="M4.93039 65.6183C4.08816 65.6183 3.48692 64.9048 3.48692 64.0708C3.48692 63.2369 4.20865 62.5222 4.93039 62.5222C5.77261 62.5222 6.49434 63.2369 6.49434 64.0708C6.49434 65.0229 5.77261 65.6183 4.93039 65.6183ZM4.93039 59.6635C2.40491 59.6635 0.479492 61.6882 0.479492 64.1901C0.479492 66.6909 2.5254 68.5974 4.93039 68.5974C7.45586 68.5974 9.50057 66.5715 9.50057 64.1901C9.50057 61.6882 7.45586 59.6635 4.93039 59.6635Z" fill="#001233"/>
<path d="M63.6252 4.64536C64.4674 4.64536 65.1891 5.35885 65.1891 6.194C65.1891 7.02679 64.4674 7.74143 63.6252 7.74143C62.7829 7.74143 62.0612 6.90748 62.0612 6.07351C62.0612 5.24072 62.7829 4.64536 63.6252 4.64536ZM63.6252 10.6001C66.1506 10.6001 68.1954 8.57542 68.1954 6.194C68.1954 3.6921 66.1506 1.66741 63.6252 1.66741C61.0997 1.66741 59.1755 3.6921 59.1755 6.194C59.055 8.57542 61.0997 10.6001 63.6252 10.6001Z" fill="#001233"/>
<path d="M12.3878 7.62085C13.23 7.62085 13.9518 6.9062 13.9518 6.07224C13.9518 5.23945 13.23 4.52478 12.3878 4.52478C11.5456 4.52478 10.9443 5.23945 10.9443 6.07224C10.9443 6.9062 11.6661 7.62085 12.3878 7.62085Z" fill="#001233"/>
<path d="M57.6108 15.0037C58.453 15.0037 59.1748 14.289 59.1748 13.455C59.1748 12.6223 58.453 12.0269 57.6108 12.0269C56.7686 12.0269 56.0469 12.7404 56.0469 13.455C56.0469 14.4083 56.7686 15.0037 57.6108 15.0037Z" fill="#001233"/>
<path d="M47.0273 41.8022C47.0273 42.6362 47.7479 43.3508 48.5901 43.3508C49.4323 43.3508 50.0336 42.6362 50.0336 41.8022C50.0336 40.9682 49.3119 40.2535 48.5901 40.2535C47.7479 40.3729 47.0273 40.9682 47.0273 41.8022Z" fill="#001233"/>
<path d="M22.9716 53.7165C22.9716 52.8837 22.2498 52.1691 21.4088 52.1691C20.5666 52.1691 19.9653 52.8837 19.9653 53.7165C19.9653 54.5505 20.6871 55.2651 21.4088 55.2651C22.2498 55.2651 22.9716 54.5505 22.9716 53.7165Z" fill="#001233"/>
<path d="M56.0474 64.1915C55.2051 64.1915 54.4834 64.9062 54.4834 65.7401C54.4834 66.5729 55.2051 67.2876 56.0474 67.2876C56.8896 67.2876 57.6113 66.5729 57.6113 65.7401C57.6113 64.7869 56.8896 64.1915 56.0474 64.1915Z" fill="#001233"/>
<path d="M4.93043 53.7165C4.93043 52.8837 4.2087 52.1691 3.36647 52.1691C2.52544 52.1691 1.80371 52.8837 1.80371 53.7165C1.80371 54.5505 2.52544 55.2651 3.36647 55.2651C4.2087 55.2651 4.93043 54.5505 4.93043 53.7165Z" fill="#001233"/>
</svg>
