<svg width="16" height="16" viewBox="0 0 16 16" fill="none" xmlns="http://www.w3.org/2000/svg">
<path d="M9.4408 6.23921C9.70644 5.97357 9.83926 5.84075 9.9113 5.6821C9.96979 5.55333 9.99909 5.41323 9.99713 5.27181C9.99471 5.09758 9.92626 4.92266 9.78937 4.57282L8.00003 0L6.21065 4.5728C6.07375 4.92265 6.0053 5.09757 6.00288 5.2718C6.00092 5.41322 6.03022 5.55333 6.08871 5.6821C6.16076 5.84075 6.29358 5.97358 6.55923 6.23922L7.63346 7.31344C7.76446 7.44444 7.82996 7.50993 7.90594 7.53331C7.96725 7.55217 8.03281 7.55217 8.09412 7.5333C8.1701 7.50993 8.23559 7.44443 8.36659 7.31343L9.4408 6.23921Z" fill="url(#paint0_linear_1765_4889)"/>
<path d="M9.4408 9.76079C9.70644 10.0264 9.83926 10.1593 9.9113 10.3179C9.96979 10.4467 9.99909 10.5868 9.99713 10.7282C9.99471 10.9024 9.92626 11.0773 9.78937 11.4272L8.00003 16L6.21065 11.4272C6.07375 11.0774 6.0053 10.9024 6.00288 10.7282C6.00092 10.5868 6.03022 10.4467 6.08871 10.3179C6.16076 10.1592 6.29358 10.0264 6.55923 9.76078L7.63346 8.68656C7.76446 8.55556 7.82996 8.49007 7.90594 8.46669C7.96725 8.44783 8.03281 8.44783 8.09412 8.46669C8.1701 8.49007 8.23559 8.55557 8.36659 8.68657L9.4408 9.76079Z" fill="url(#paint1_linear_1765_4889)"/>
<path d="M16 8.00003L11.4272 9.78937C11.0773 9.92626 10.9024 9.99471 10.7282 9.99713C10.5868 9.99909 10.4467 9.96979 10.3179 9.9113C10.1593 9.83926 10.0264 9.70644 9.76079 9.4408L8.68657 8.36659C8.55557 8.23559 8.49007 8.1701 8.46669 8.09412C8.44783 8.03281 8.44783 7.96725 8.46669 7.90594C8.49007 7.82996 8.55556 7.76446 8.68656 7.63346L9.76078 6.55923C10.0264 6.29358 10.1592 6.16076 10.3179 6.08871C10.4467 6.03022 10.5868 6.00092 10.7282 6.00288C10.9024 6.0053 11.0774 6.07375 11.4272 6.21065L16 8.00003Z" fill="url(#paint2_linear_1765_4889)"/>
<path d="M6.23921 9.4408C5.97357 9.70644 5.84075 9.83926 5.6821 9.9113C5.55333 9.96979 5.41323 9.99909 5.27181 9.99713C5.09758 9.99471 4.92266 9.92626 4.57282 9.78937L0 8.00003L4.5728 6.21065C4.92265 6.07375 5.09757 6.0053 5.2718 6.00288C5.41322 6.00092 5.55333 6.03022 5.6821 6.08871C5.84075 6.16076 5.97358 6.29358 6.23922 6.55923L7.31344 7.63346C7.44444 7.76446 7.50993 7.82996 7.53331 7.90594C7.55217 7.96725 7.55217 8.03281 7.5333 8.09412C7.50993 8.1701 7.44443 8.2356 7.31343 8.36659L6.23921 9.4408Z" fill="url(#paint3_linear_1765_4889)"/>
<defs>
<linearGradient id="paint0_linear_1765_4889" x1="7.73002e-08" y1="7.99985" x2="16" y2="7.99985" gradientUnits="userSpaceOnUse">
<stop stop-color="#15B2FF"/>
<stop offset="1" stop-color="#4867FF"/>
</linearGradient>
<linearGradient id="paint1_linear_1765_4889" x1="7.73002e-08" y1="7.99985" x2="16" y2="7.99985" gradientUnits="userSpaceOnUse">
<stop stop-color="#15B2FF"/>
<stop offset="1" stop-color="#4867FF"/>
</linearGradient>
<linearGradient id="paint2_linear_1765_4889" x1="7.73002e-08" y1="7.99985" x2="16" y2="7.99985" gradientUnits="userSpaceOnUse">
<stop stop-color="#15B2FF"/>
<stop offset="1" stop-color="#4867FF"/>
</linearGradient>
<linearGradient id="paint3_linear_1765_4889" x1="7.73002e-08" y1="7.99985" x2="16" y2="7.99985" gradientUnits="userSpaceOnUse">
<stop stop-color="#15B2FF"/>
<stop offset="1" stop-color="#4867FF"/>
</linearGradient>
</defs>
</svg>
