<svg width="20" height="20" viewBox="0 0 20 20" fill="none" xmlns="http://www.w3.org/2000/svg">
<path d="M11.801 7.79901C12.133 7.46696 12.2991 7.30094 12.3891 7.10263C12.4622 6.94166 12.4989 6.76653 12.4964 6.58976C12.4934 6.37198 12.4078 6.15333 12.2367 5.71603L10 0L7.76331 5.716C7.59219 6.15331 7.50662 6.37197 7.5036 6.58975C7.50114 6.76653 7.53778 6.94166 7.61088 7.10263C7.70095 7.30094 7.86698 7.46697 8.19904 7.79903L9.54183 9.1418C9.70558 9.30555 9.78745 9.38742 9.88242 9.41663C9.95906 9.44021 10.041 9.44021 10.1177 9.41663C10.2126 9.38742 10.2945 9.30554 10.4582 9.14179L11.801 7.79901Z" fill="#007F5F"/>
<path d="M11.801 12.201C12.133 12.533 12.2991 12.6991 12.3891 12.8974C12.4622 13.0583 12.4989 13.2335 12.4964 13.4102C12.4934 13.628 12.4078 13.8467 12.2367 14.284L10 20L7.76331 14.284C7.59219 13.8467 7.50662 13.628 7.5036 13.4102C7.50114 13.2335 7.53778 13.0583 7.61088 12.8974C7.70095 12.6991 7.86698 12.533 8.19904 12.201L9.54183 10.8582C9.70558 10.6945 9.78745 10.6126 9.88242 10.5834C9.95906 10.5598 10.041 10.5598 10.1177 10.5834C10.2126 10.6126 10.2945 10.6945 10.4582 10.8582L11.801 12.201Z" fill="#007F5F"/>
<path d="M20 10L14.284 12.2367C13.8467 12.4078 13.628 12.4934 13.4102 12.4964C13.2335 12.4989 13.0583 12.4622 12.8974 12.3891C12.6991 12.2991 12.533 12.133 12.201 11.801L10.8582 10.4582C10.6945 10.2945 10.6126 10.2126 10.5834 10.1177C10.5598 10.041 10.5598 9.95906 10.5834 9.88242C10.6126 9.78745 10.6945 9.70558 10.8582 9.54183L12.201 8.19904C12.533 7.86698 12.6991 7.70095 12.8974 7.61088C13.0583 7.53778 13.2335 7.50114 13.4102 7.5036C13.628 7.50662 13.8467 7.59219 14.284 7.76331L20 10Z" fill="#007F5F"/>
<path d="M7.79902 11.801C7.46696 12.133 7.30094 12.2991 7.10263 12.3891C6.94166 12.4622 6.76653 12.4989 6.58976 12.4964C6.37198 12.4934 6.15333 12.4078 5.71603 12.2367L0 10L5.716 7.76331C6.15331 7.59219 6.37197 7.50662 6.58975 7.5036C6.76653 7.50114 6.94166 7.53778 7.10263 7.61088C7.30094 7.70095 7.46697 7.86698 7.79903 8.19904L9.1418 9.54183C9.30555 9.70558 9.38742 9.78745 9.41663 9.88242C9.44021 9.95906 9.44021 10.041 9.41663 10.1177C9.38741 10.2126 9.30554 10.2945 9.14179 10.4582L7.79902 11.801Z" fill="#007F5F"/>
</svg>
